<?xml version="1.0" encoding="utf-8"?>
<!-- Generator: Adobe Illustrator 27.5.0, SVG Export Plug-In . SVG Version: 6.00 Build 0)  -->
<svg version="1.1" id="_x3C_Layer_x3E_" xmlns="http://www.w3.org/2000/svg" xmlns:xlink="http://www.w3.org/1999/xlink" x="0px"
	 y="0px" viewBox="0 0 2760 1840" style="enable-background:new 0 0 2760 1840;" xml:space="preserve">
<rect style="fill:#FFFFFF;" width="2760" height="1840"/>
<g>
	<path style="fill:#DAEBE8;" d="M2677.759,365.092v1089.505c0,174.707-154.658,292.545-341.521,316.331
		c-169.376,21.56-340.791,17.39-513.266,9.517c-235.388-10.765-419.255-26.745-503.981-26.745
		c-276.373-5.216-694.354,15.368-919.353,17.228c-188.613,1.554-341.53-141.624-341.53-316.331V365.092
		c0-174.707,153.235-326.61,341.53-316.331c174.86,9.547,432.051,47.322,700.158,24.187
		c318.88-27.517,924.129-50.892,1236.442-24.187C2524.056,64.816,2677.759,190.385,2677.759,365.092z"/>
	<ellipse style="opacity:0.5;fill:#B8D5DC;" cx="1416.891" cy="1466.735" rx="1133.665" ry="143.053"/>
	<g>
		<g>
			<path style="fill:#CCD39C;" d="M1806.994,749.617c0,0,247.686-367.992,365.661-294.331
				c117.975,73.66-231.905,208.335-299.912,317.836L1806.994,749.617z"/>
			<g>
				<path style="fill:#C2C68E;" d="M1841.144,761.59c25.296-42.431,76.54-109.251,177.026-186.617
					c60.072-46.25,109.974-74.715,110.472-74.996l1.134,1.998c-0.496,0.281-50.283,28.682-110.232,74.842
					c-100.181,77.136-151.236,143.696-176.425,185.95L1841.144,761.59z"/>
			</g>
		</g>
		<g style="opacity:0.7;">
			<path style="fill:#CCD39C;" d="M1497.423,768.115c0,0,120.407-426.929,255.483-393.786s-155.264,270.327-185.682,395.587
				L1497.423,768.115z"/>
			<g>
				<path style="fill:#C2C68E;" d="M1533.604,768.827c10.783-48.208,38.603-127.687,109.909-232.56
					c42.628-62.694,81.148-105.317,81.533-105.739l1.701,1.544c-0.383,0.422-38.814,42.948-81.354,105.517
					c-71.089,104.559-98.81,183.732-109.547,231.739L1533.604,768.827z"/>
			</g>
		</g>
		<g>
			<g>
				<path style="fill:#ACC9C5;" d="M2212.338,783.02c-64.365,31.717-27.338,131.891-109.648,132.147
					c-76.352,0.196-77.428-5.44-100.224,28.04c-3.372,4.953-5.842,10.47-7.246,16.295c-2.991,12.406-11.599,36.002-34.429,41.595
					c-98.194,24.054-97.941-26.063-193.178-72.331c-26.669-12.956-44.777-29.787-67.229-42.807
					c1.436-17.708-18.808-72.343,34.942-102.382c10.465-5.849,20.033-15.538,34.227-21.542
					c77.01-32.514,111.164-1.966,150.706-112.162c39.558-110.227,159.055,3.799,211.603-14.385
					c52.548-18.185,95.882-46.127,151.975,0.36C2339.947,682.379,2276.719,751.348,2212.338,783.02z"/>
			</g>
			<g style="opacity:0.4;">
				<g>
					<path style="fill:#68A1BF;" d="M1806.782,904.809l-3.503-3.161c1.391-1.545,143.432-155.704,494.242-252.04l1.251,4.552
						C1949.278,750.136,1808.169,903.273,1806.782,904.809z"/>
				</g>
				<g>
					<path style="fill:#68A1BF;" d="M1992.314,713.736c-57-30.27-73.492-61.48-74.166-62.792l4.198-2.158
						c0.159,0.309,16.64,31.285,72.185,60.782L1992.314,713.736z"/>
				</g>
				<g>
					<path style="fill:#68A1BF;" d="M2012.707,761.124c-18.828-19.783-25.88-53.303-20.396-96.936
						c4.106-32.676,13.872-59.934,13.97-60.205l4.437,1.603c-0.383,1.062-37.884,106.798,5.41,152.286L2012.707,761.124z"/>
				</g>
				<g>
					<path style="fill:#68A1BF;" d="M2103.588,729.979c-6.696-3.253-10.442-5.519-10.613-5.623l2.475-4.017
						c0.785,0.484,79.729,48.112,172.189,22.05l1.279,4.54C2194.416,767.93,2128.537,742.099,2103.588,729.979z"/>
				</g>
				<g>
					<path style="fill:#68A1BF;" d="M2175.78,824.44c-27.18-18.413-39.163-40.601-44.429-55.972
						c-5.732-16.731-4.996-28.989-4.963-29.504l4.711,0.311c-0.03,0.472-2.436,47.547,47.331,81.258L2175.78,824.44z"/>
				</g>
				<g>
					<path style="fill:#68A1BF;" d="M1986.293,921.234c-63.223-30.715-90.203-91.838-90.5-92.531l4.333-1.869
						c0.327,0.759,33.78,76.39,113.468,99.947l-1.338,4.529C2003.002,928.57,1994.351,925.148,1986.293,921.234z"/>
				</g>
				<g>
					<path style="fill:#68A1BF;" d="M1930.468,876.474l-2.508-3.996c22.424-14.071,65.011-26.916,140.552-8.212
						c44.935,11.125,80.874,28.446,81.232,28.619l-2.063,4.246C2146.271,896.446,2005.753,829.237,1930.468,876.474z"/>
				</g>
			</g>
		</g>
	</g>
	<g>
		<path style="fill:#ACC9C5;" d="M940.591,752.017c0,0-45.867-295.261-125.518-279.805
			c-79.651,15.456,74.573,191.041,85.203,277.417L940.591,752.017z"/>
		<g>
			<path style="fill:#92BCB5;" d="M938.963,746.941c0,0-139.736-317.172-240.626-276.793
				c-100.89,40.38,149.619,192.208,186.819,285.802L938.963,746.941z"/>
			<g>
				<path style="fill:#68A1BF;" d="M908.908,752.245c-24.516-65.104-73.33-126.862-109.961-167.205
					c-39.715-43.737-74.044-72.409-74.387-72.693l1.777-2.137c0.343,0.285,34.824,29.082,74.667,72.961
					c36.795,40.523,85.835,102.579,110.504,168.093L908.908,752.245z"/>
			</g>
		</g>
		<g>
			<g>
				<path style="fill:#CCD39C;" d="M609.732,797.252c67.795,36.669,23.967,142.684,112.306,146.315
					c88.358,3.583,83.055-3.679,112.306,43.649c0,0,5.386,39.095,36.503,54.372c122.773,60.275,355.218-79.661,250.878-224.29
					c-7.534-10.444-20.87-17.495-35.86-24.518c-81.336-38.04-119.241-6.643-157.193-126.537
					c-37.967-119.928-170.881-2.407-226.545-24.068c-55.663-21.662-101.037-53.421-163.142-5.81
					C476.862,684.024,541.917,760.632,609.732,797.252z"/>
			</g>
			<g>
				<g>
					<path style="fill:#C2C68E;" d="M1040.083,944.513l3.889-3.25c-1.431-1.715-147.609-172.978-520.234-290.686l-1.528,4.835
						C893.437,772.68,1038.657,942.808,1040.083,944.513z"/>
				</g>
				<g>
					<path style="fill:#C2C68E;" d="M848.726,731.854c62.417-30.168,81.392-62.995,82.169-64.377l-4.418-2.487
						c-0.183,0.326-19.136,32.902-79.96,62.299L848.726,731.854z"/>
				</g>
				<g>
					<path style="fill:#C2C68E;" d="M824.905,781.889c21.016-20.467,29.953-56.159,25.845-103.217
						c-3.076-35.241-12.446-64.898-12.541-65.192l-4.828,1.54c0.368,1.156,36.31,116.179-12.016,163.24L824.905,781.889z"/>
				</g>
				<g>
					<path style="fill:#C2C68E;" d="M728.624,744.753c7.32-3.219,11.434-5.498,11.621-5.604l-2.492-4.413
						c-0.862,0.488-87.541,48.392-185.724,16.648l-1.558,4.821C629.584,781.785,701.351,756.745,728.624,744.753z"/>
				</g>
				<g>
					<path style="fill:#C2C68E;" d="M647.284,843.203c29.926-18.656,43.693-41.984,49.972-58.268
						c6.834-17.725,6.544-30.913,6.53-31.466l-5.069,0.141c0.013,0.507,0.676,51.135-54.117,85.292L647.284,843.203z"/>
				</g>
			</g>
		</g>
		<g>
			<g>
				<g>
					<g>
						<path style="fill:#ACC9C5;" d="M902.101,735.928l-2.445-0.937c0.144-0.375,14.443-38.388,17.679-99.138
							c2.983-56.053-3.114-143.484-49.106-241.686l2.37-1.11c46.246,98.743,52.358,186.675,49.342,243.053
							C916.672,697.236,902.247,735.547,902.101,735.928z"/>
					</g>
					<g>
						<path style="fill:#ACC9C5;" d="M883.427,459.932c-25.556-7.313-41.208-25.634-41.386-25.847l2.003-1.684
							c0.198,0.235,20.268,23.677,51.892,27.387l-0.304,2.599C891.353,461.886,887.275,461.033,883.427,459.932z"/>
					</g>
					<g>
						<path style="fill:#ACC9C5;" d="M870.563,379.658c9.876,15.817,9.087,22.848,4.49,25.719
							c-4.597,2.87-11.261,0.492-21.137-15.324c-17.99-28.813-18.361-47.935-18.361-47.935S852.31,350.425,870.563,379.658z"/>
					</g>
					<g>
						<path style="fill:#ACC9C5;" d="M851.116,427.882c14.185,12.103,15.553,19.045,12.035,23.168
							c-3.518,4.123-10.589,3.865-24.774-8.238c-25.84-22.048-31.96-40.168-31.96-40.168S824.899,405.514,851.116,427.882z"/>
					</g>
					<g>
						<path style="fill:#ACC9C5;" d="M920.629,427.218c-0.672,13.811-5.26,17.705-10.673,17.442
							c-5.413-0.263-9.602-4.585-8.93-18.396c1.224-25.158,11.617-36.841,11.617-36.841S921.87,401.693,920.629,427.218z"/>
					</g>
				</g>
			</g>
		</g>
	</g>
	<g>
		<g>
			<path style="fill:#5C305D;" d="M1549.651,1356.021v-160.284h-323.316v160.283c0,41.653-27.719,75.419-61.912,75.419h-13.028
				v20.693h473.195v-20.693h-13.028C1577.37,1431.438,1549.651,1397.673,1549.651,1356.021z"/>
			<path style="fill:#331832;" d="M1621.95,1452.132h-467.913c-5.714,0-10.347-4.632-10.347-10.347l0,0
				c0-5.714,4.632-10.347,10.347-10.347h467.913c5.714,0,10.347,4.632,10.347,10.347l0,0
				C1632.296,1447.499,1627.664,1452.132,1621.95,1452.132z"/>
		</g>
		<path style="fill:#764678;" d="M1938.73,1294.141l-1093.348-12.546c-23.406-0.269-42.239-19.319-42.239-42.726v-667.32
			c0-23.344,18.734-42.367,42.075-42.724l1079.244-16.527c23.513-0.36,42.898,18.347,43.375,41.859l14.104,696.393
			C1982.429,1274.674,1962.858,1294.418,1938.73,1294.141z"/>
		<path style="fill:#E4F1EF;" d="M1901.693,1161.791H868.426c-12.656,0-22.916-10.26-22.916-22.916V602.431
			c0-12.656,10.26-22.916,22.916-22.916h1033.266c12.656,0,22.916,10.26,22.916,22.916v536.444
			C1924.609,1151.531,1914.349,1161.791,1901.693,1161.791z"/>
	</g>
	<g>
		<g>
			<g>
				<path style="fill:#366F90;" d="M1523.13,518.478c-5.562-27.637-16.382-54.634-31.664-79.838
					c-1.282-2.132-2.613-4.259-3.963-6.365c-12.438-19.333-27.52-37.536-44.869-54.027c-0.004-0.017-0.01-0.026-0.02-0.02
					c-12.083-11.506-25.27-22.189-39.422-31.873c-3.572-2.439-7.168-4.797-10.79-7.066c-3.824-2.396-7.683-4.698-11.57-6.902
					c-0.522-0.295-1.044-0.59-1.568-0.877c-7.309-4.102-14.712-7.854-22.202-11.262c-0.006-0.009-0.014-0.011-0.029-0.014
					c-34.987-15.933-71.651-24.34-108.253-24.837c0.001-0.008,0.001-0.008-0.008-0.002c-0.006-0.009-0.013-0.011-0.032,0.001
					c0,0,0.002-0.008-0.008-0.002c-6.628-0.094-13.26,0.07-19.87,0.507c-4.83,0.31-9.657,0.762-14.466,1.359
					c-8.737,1.074-17.442,2.612-26.085,4.618c-1.316,0.323-2.626,0.615-3.943,0.938c-2.632,0.646-5.247,1.319-7.86,2.023
					c-6.544,1.779-13.024,3.752-19.425,5.914c-6.392,2.156-12.704,4.501-18.927,7.022c-0.618,0.252-1.244,0.51-1.863,0.77
					c-4.333,1.779-8.616,3.656-12.86,5.618c-5.598,2.585-11.116,5.319-16.546,8.198c-4.09,2.167-8.133,4.414-12.112,6.738
					c-0.66,0.385-1.322,0.778-1.975,1.165c-45.102,26.74-82.991,63.487-108.155,106.323c-11.39,19.383-19.812,39.526-25.172,59.896
					c-1.325,5.017-2.456,10.05-3.407,15.088c-1.217,6.423-2.121,12.855-2.716,19.279c-2.202,23.489-0.299,46.867,5.823,69.34
					c0.006,0.009,0.003,0.024,0.009,0.033c0.096,0.342,0.19,0.691,0.286,1.034c0.096,0.342,0.182,0.69,0.286,1.033
					c2.085,7.557,4.296,14.881,6.625,21.969c3.371,10.288,6.992,20.085,10.86,29.396c0.248,0.601,0.495,1.202,0.752,1.797
					c1.039,2.476,2.103,4.91,3.18,7.316l-0.002,0.008c1.034,2.31,2.09,4.585,3.166,6.841c2.376,4.997,4.839,9.839,7.388,14.525
					c0.331,0.618,0.669,1.237,1.015,1.858c1.852,3.357,3.75,6.637,5.698,9.832c0.194,0.323,0.394,0.654,0.603,0.98
					c0.181,0.312,0.376,0.627,0.587,0.945c0.215,0.374,0.455,0.745,0.692,1.124c0.992,1.586,1.994,3.158,3.018,4.703
					c0.587,0.906,1.185,1.798,1.786,2.675c1.125,1.668,2.261,3.314,3.421,4.926c11.001,15.408,23.225,28.586,36.713,39.566
					c15.394,12.555,32.436,22.267,51.18,29.208c1.219,0.468,3.439,1.351,6.46,2.664c7.467,3.246,19.822,9.111,33.986,17.806
					c0.7,0.425,1.407,0.86,2.117,1.311c4.914,3.074,10.026,6.487,15.211,10.244c17.325,12.538,35.43,28.907,49.676,49.41
					c6.814,9.799,12.749,20.553,17.283,32.281c2.841,7.318,5.133,15.019,6.764,23.106c0.136,0.688,0.797,1.114,1.477,0.976
					l19.943-4.629l113.522-26.363l0.008,0.002c0.324-0.084,0.601-0.287,0.78-0.589c0.199-0.282,0.257-0.648,0.192-0.984
					c-0.08-0.378-2.906-15.331-1.211-37.601c2.689-35.543,16.865-89.742,72.028-133.193c39.292-28.808,66.544-63.292,80.836-101.358
					C1527.772,590.378,1530.505,555.088,1523.13,518.478z M1433.237,722.347c-56.089,44.176-70.415,99.351-73.102,135.461
					c-1.406,18.908,0.38,32.587,1.039,36.709l-112.372,26.085l-18.663,4.331c-1.722-8.184-4.114-15.969-7.057-23.37
					c-4.817-12.155-11.106-23.264-18.307-33.362c-14.696-20.61-33.175-37-50.704-49.5c-5.235-3.737-10.392-7.127-15.327-10.174
					c-0.727-0.447-1.456-0.885-2.17-1.321c-13.353-8.082-24.972-13.617-32.256-16.795c-3.264-1.433-5.659-2.383-6.943-2.88
					c-18.679-6.913-35.643-16.617-50.955-29.194c-8.874-7.283-17.191-15.523-24.965-24.739c-3.259-3.863-6.427-7.904-9.491-12.112
					c-1.196-1.627-2.369-3.289-3.528-4.979c-0.215-0.295-0.428-0.606-0.637-0.931c-1.531-2.222-3.041-4.511-4.519-6.84
					c-0.239-0.371-0.471-0.741-0.709-1.119c-0.397-0.639-0.802-1.28-1.198-1.926c-1.497-2.428-2.962-4.904-4.401-7.422
					c-1.303-2.262-2.574-4.565-3.822-6.903c-2.021-3.761-3.982-7.628-5.891-11.594c-1.324-2.738-2.617-5.518-3.876-8.345
					c-0.986-2.198-1.958-4.425-2.901-6.677c-0.264-0.596-0.512-1.197-0.767-1.8c-6.39-15.337-12.094-31.998-17.139-50.012
					l-0.355-1.276c-0.076-0.283-0.162-0.56-0.23-0.841c-0.115-0.401-0.225-0.793-0.332-1.192c-0.019-0.059-0.03-0.124-0.049-0.183
					c-4.56-16.72-6.819-33.728-6.803-50.826c0.012-13.511,1.443-27.073,4.282-40.6c0.898-4.309,1.946-8.619,3.14-12.916
					c5.332-19.299,13.539-38.462,24.557-57.213c24.573-41.824,61.393-77.796,105.239-104.201c0.682-0.412,1.363-0.825,2.041-1.222
					c4.149-2.462,8.359-4.833,12.623-7.122c5.991-3.205,12.099-6.245,18.301-9.092c4.269-1.966,8.581-3.836,12.948-5.624
					c0.61-0.254,1.228-0.506,1.851-0.749c4.746-1.916,9.55-3.726,14.4-5.416c6.497-2.284,13.078-4.363,19.726-6.231
					c3.63-1.026,7.286-1.99,10.961-2.889c1.3-0.318,2.62-0.625,3.93-0.917c7.917-1.839,15.887-3.281,23.886-4.325
					c1.4-0.196,2.795-0.361,4.195-0.517c0.009-0.006,0.026-0.01,0.032-0.002c3.424-0.398,6.855-0.717,10.286-0.957
					c36.594-2.643,73.623,2.802,109.282,15.969c0.053,0.011,0.106,0.021,0.157,0.04c13.759,5.073,27.325,11.326,40.567,18.709
					c0.524,0.287,1.054,0.583,1.576,0.878c3.911,2.202,7.787,4.498,11.634,6.899c3.814,2.371,7.598,4.846,11.35,7.408
					c19.327,13.219,36.981,28.593,52.502,45.484c0.014,0.011,0.026,0.029,0.038,0.047c11.119,12.112,21.111,24.932,29.874,38.344
					c1.466,2.233,2.896,4.489,4.284,6.761c15.609,25.412,26.71,52.576,32.206,79.916c7.297,36.256,4.545,71.22-7.706,103.564
					C1498.804,660.068,1471.935,693.985,1433.237,722.347z"/>
			</g>
		</g>
		<g>
			<path style="fill:#EF8062;" d="M1209.061,301.263c152.97-35.496,306.381,81.753,333.343,215.643
				c16.945,84.149-20.095,154.842-87.929,204.567c-91.446,72.05-71.337,172.151-71.337,172.151l-133.47,30.971
				c-18.313-90.938-119.385-132.751-132.251-137.732c-61.311-22.706-108.635-76.662-136.514-178.901
				C945.047,476.47,1056.091,336.759,1209.061,301.263z"/>
		</g>
		<g>
			<path style="fill:#764678;" d="M1238.356,890.861c0,0-40.831,16.107-21.043,61.582c0,0-23.236,39.291,10.359,59.658
				c0,0-17.227,39.461,12.607,66.959c29.834,27.498,198.98-27.398,208.909-48.477c9.928-21.079-1.056-40.434-16.567-42.05
				c0,0,17.18-21.026,7.707-40.035c-9.473-19.009-20.915-20.526-20.915-20.526s13.693-12.565,9.714-39.804
				C1425.148,860.929,1388.269,833.275,1238.356,890.861z"/>
		</g>
		<g>
			<g>
				<path style="fill:#331832;" d="M1227.856,1015.139c0.46-0.042,0.922-0.195,1.345-0.467c0.144-0.092,14.698-9.358,37.904-17.652
					c21.353-7.631,54.623-15.984,91.872-12.435c1.635,0.151,3.116-1.079,3.315-2.756s-0.964-3.163-2.596-3.319
					c-38.392-3.657-72.625,4.951-94.584,12.819c-23.808,8.53-38.363,17.811-38.97,18.201c-1.41,0.906-1.868,2.791-1.023,4.211
					C1225.709,1014.735,1226.782,1015.238,1227.856,1015.139z"/>
			</g>
		</g>
		<path style="opacity:0.2;fill:#FFFFFF;" d="M1428.08,362.712c-37.254-35.408-87.393-53.729-138.779-52.682
			c-42.513,0.867-95.161,12.272-124.219,57.508c-54.097,84.218,168.326,210.064,245.197,197.105
			c76.871-12.959,78.929-58.786,66.635-116.031C1469.889,415.901,1453.607,386.975,1428.08,362.712z"/>
		<g>
			<g>
				<path style="fill:#331832;" d="M1217.495,955.482c0.363-0.033,0.729-0.136,1.078-0.314c0.201-0.102,20.507-10.356,47.865-19.448
					c25.103-8.343,61.459-17.396,92.081-13.133c1.621,0.223,3.154-0.945,3.421-2.614c0.267-1.67-0.832-3.206-2.455-3.432
					c-31.762-4.421-69.1,4.852-94.827,13.411c-27.764,9.234-48.401,19.661-48.607,19.766c-1.49,0.757-2.133,2.59-1.436,4.095
					C1215.149,954.964,1216.311,955.591,1217.495,955.482z"/>
			</g>
		</g>
		<g style="opacity:0.7;">
			<path style="fill:#FFFFFF;" d="M1315.354,720.388c12.454-4.741,24.162-11.773,33.88-21.718
				c17.066-17.429,21.788-40.737,12.616-62.326c-7.023-16.559-20.396-26.981-33.272-25.936c-6.381,0.514-18.011,4.487-24.32,25.113
				c-5.421,17.763-4.869,46.05-1.488,76.76c-7.968,2.324-16.374,3.631-24.513,4.198c-2.635-17.171-5.974-32.196-10.207-42.77
				c-2.6-6.529-5.551-11.368-8.872-13.961c-17.707-13.835-41.024-9.599-54.843,1.677c-11.947,9.76-16.008,23.96-10.581,37.104
				c5.346,12.923,23.498,23.363,48.565,27.946c1.844,0.335,3.748,0.642,5.693,0.903c6.314,0.864,13.123,1.342,20.214,1.325
				c5.574,44.284,8.128,103.875,8.372,146.825l5.747-0.218l0.007,0.001l5.762-0.215c0-0.504-0.012-1.025-0.015-1.592l0.002-0.008
				c-0.154-22.15-1.194-91.18-8.195-145.295c8.022-0.653,16.226-2.009,24.275-4.191c8.055,62.179,25.715,129.736,27.922,138.049
				c0.078,0.275,0.13,0.483,0.172,0.625l5.485-1.719l0.017-0.005l5.602-1.75C1343.09,858.117,1323.676,785.052,1315.354,720.388z
				 M1252.074,715.886c-2.565-0.308-5.045-0.685-7.434-1.123c-20.39-3.713-36.573-12.227-40.27-21.182
				c-4.816-11.62,3.259-19.9,6.946-22.912c3.699-3.033,8.441-5.39,13.613-6.653c8.841-2.17,18.937-1.105,27.125,5.292
				c3.586,2.796,6.729,10.293,9.46,21.065c1.884,7.422,3.579,16.395,5.077,26.461
				C1261.562,716.773,1256.69,716.437,1252.074,715.886z M1315.248,638.773c2.031-6.675,5.804-14.648,12.343-16.248
				c0.513-0.124,1.03-0.231,1.565-0.272c7.845-0.634,17.154,7.414,22.125,19.12c2.695,6.336,9.915,28.591-10.032,48.975
				c-7.852,8.035-17.235,13.918-27.312,18.071C1310.89,680.137,1310.427,654.542,1315.248,638.773z"/>
		</g>
		<path style="opacity:0.7;fill:#D96048;" d="M1004.459,557.616c0,0,13.017,151.33,89.535,183.423
			c76.518,32.093,128.869,99.052,145.721,86.102c16.852-12.95-9.962-96.911-85.229-132.505
			C1079.22,659.041,1018.249,496.577,1004.459,557.616z"/>
		<g style="opacity:0.6;">
			<path style="fill:#FFFFFF;" d="M1270.606,400.884c28.864,11.195,58.724,7.081,111.413,54.056
				c52.69,46.975,78.572,0.508,46.938-53.487c-31.633-53.995-101.353-78.903-132.905-75.576
				C1232.621,332.564,1221.367,381.786,1270.606,400.884z"/>
		</g>
	</g>
	<g>
		<polygon style="fill:#DB6046;" points="1549.632,1161.832 1070.324,1161.832 1070.324,967.08 1234.27,971.779 		"/>
		<polygon style="fill:#EF8062;" points="1718.8,1161.832 1239.491,1161.832 1234.27,971.779 1718.8,992.664 		"/>
		<polygon style="fill:#DB6046;" points="1234.27,984.31 1305.801,1131.549 1718.8,1073.071 1718.8,1052.186 1234.27,971.779 		"/>
		<polygon style="fill:#EF8062;" points="1234.27,971.779 1309.978,1108.575 1807.561,1059.496 1748.163,955.071 		"/>
		<polygon style="fill:#EF8062;" points="1234.27,971.779 1188.845,1108.575 1029.25,1064.456 1070.324,967.08 		"/>
	</g>
	<g>
		<g>
			<g>
				<g>
					<g>
						<path style="fill:#FFB27D;" d="M1539.568,810.164l9.804-35.819c-0.201,0.811-22.06,1.917-55.146,51.73
							c-3.254,4.899-19.2-61.645-25.313-65.696c-3.747-2.483-14.174,5.835-14.174,5.835c-0.066,7.634-0.987,23.599,1.929,46.576
							c1.765,13.914,3.891,25.155,6.318,33.414c1.712,5.826,3.621,10.375,5.837,13.908c5.847,9.322,13.465,10.745,17.486,10.745
							C1520.078,870.856,1539.529,810.325,1539.568,810.164z"/>
					</g>
				</g>
			</g>
		</g>
		<g>
			<g>
				<g>
					<g>
						<path style="fill:#FFB27D;" d="M1456.724,785.118c0,0-14.818,5.152-22.255,0.756c-7.436-4.396-13.611-15.634-8.423-13.888
							c5.188,1.746,11.201,5.809,11.201,5.809s-12.438-9.284-9.007-11.253c3.431-1.969,14.171,6.21,14.171,6.21
							s-13.92-12.227-10.077-13.037s14.352,8.553,14.352,8.553s-12.497-11.893-8.011-12.73c4.486-0.836,10.264,9.895,13.695,7.927
							c3.431-1.969,16.878-9.154,19.52,1.202L1456.724,785.118z"/>
					</g>
				</g>
			</g>
			<g>
				<g>
					<g>
						<path style="fill:#E9845C;" d="M1443.127,780.773c-0.009,0.002-0.013,0.003-0.021,0.005c-2.795,0.522-5.952-2.619-6.083-2.759
							c-0.127-0.122-0.123-0.323,0-0.446c0.123-0.141,0.326-0.129,0.451,0.003c0.03,0.029,3.052,3.032,5.518,2.576
							c0.173-0.035,0.338,0.077,0.369,0.251C1443.396,780.577,1443.289,780.732,1443.127,780.773z"/>
					</g>
				</g>
			</g>
			<g>
				<g>
					<g>
						<path style="fill:#E9845C;" d="M1449.413,776.25c-0.026,0.007-0.056,0.014-0.083,0.012c-4.016-0.058-7.022-3.156-7.146-3.288
							c-0.125-0.132-0.117-0.334,0.01-0.458c0.119-0.121,0.324-0.119,0.449,0.013c0.03,0.029,2.952,3.048,6.696,3.094
							c0.173,0.001,0.315,0.147,0.314,0.32C1449.651,776.098,1449.549,776.215,1449.413,776.25z"/>
					</g>
				</g>
			</g>
			<g>
				<g>
					<g>
						<path style="fill:#E9845C;" d="M1453.22,771.586c-2.924,0.746-6.606-2.935-6.76-3.095c-0.127-0.122-0.123-0.323,0-0.445
							c0.121-0.149,0.326-0.129,0.451,0.003c0.036,0.036,3.582,3.579,6.153,2.923c0.013-0.003,0.026-0.006,0.043-0.011l0.004-0.001
							c0.167-0.042,0.342,0.058,0.384,0.22C1453.546,771.367,1453.387,771.525,1453.22,771.586z"/>
					</g>
				</g>
			</g>
		</g>
		<path style="fill:#331832;" d="M1475.26,1074.12c0,0-2.645,17.122-9.683,25.85c-4.64,5.753-17.437,17.148-8.336,20.945
			c7.269,3.032,21.266-10.468,25.81-13.826c4.544-3.359,11.396-9.715,9.876-15.132c-3.148-11.221-2.11-25.328-2.11-25.328
			L1475.26,1074.12z"/>
		<path style="fill:#331832;" d="M1510.406,1060.84c0,0,3.519,16.967-0.022,27.578c-2.334,6.995-10.342,22.095-0.478,22.514
			c7.878,0.335,16.272-17.152,19.355-21.869c3.084-4.717,7.281-13.041,3.959-17.596c-6.883-9.435-10.852-23.019-10.852-23.019
			L1510.406,1060.84z"/>
		<g>
			<path style="fill:#366F90;" d="M1505.474,1072.83c-94.354-62.459-89.694-117.176-76.618-138.575
				c15.186-24.851,39.23-44.502,76.08-53.267c9.824-2.337,19.176-3.689,26.99-4.466c11.316-1.126,21.062,7.842,20.763,19.124
				l-0.846,31.866l0.072,0.002c-15.743-0.327-63.505,4.436-76.019,29.694c-2.601,5.25,60.912,79.28,58.542,92.563
				C1531.756,1064.799,1514.7,1078.937,1505.474,1072.83z"/>
		</g>
		<g>
			<path style="fill:#366F90;" d="M1468.889,1082.184c-10.851,0.054-19.505-8.991-18.865-19.741
				c1.423-23.898,5.896-64.572,19.92-95.303c7.953-17.428,20.598-33.275,37.583-47.099c12.807-10.424,28.135-19.741,45.557-27.691
				c28.978-13.223,49.849-11.378,49.849-11.378l29.586,25.048c-0.21,0.042,4.892,35.081-31.92,55.456
				c-37.694,20.864-66.475,5.351-81.752,35.022c-10.906,21.182-15.074,49.266-16.46,68.892c-0.663,9.388-8.521,16.67-18.003,16.717
				L1468.889,1082.184z"/>
		</g>
		<g>
			<path style="fill:#020202;" d="M1453.603,1029.488l-0.577-0.05c0.013-0.213,1.519-21.599,8.183-45.784
				c6.156-22.352,18.098-51.72,40.048-64.76l0.301,0.502c-21.787,12.939-33.666,42.169-39.791,64.408
				C1455.122,1007.939,1453.616,1029.274,1453.603,1029.488z"/>
		</g>
		<g>
			<path style="fill:#020202;" d="M1501.696,1070.1h-0.577c0.232-33.283,11.208-58.974,11.321-59.225l0.527,0.226
				C1512.86,1011.352,1501.934,1036.942,1501.696,1070.1z"/>
		</g>
		<path style="fill:#6DA49A;" d="M1619.194,792.978c0,0-9.911-26.096-46.712-24.136c-36.801,1.96-45.169,9.307-67.546,112.146
			c0,0,30.971,30.383,107.549,35.017c11.324,0.685,25.039,4.56,25.665-6.682C1639.396,886.935,1634.754,844.176,1619.194,792.978z"
			/>
		<path style="fill:#6DA49A;" d="M1645.387,801.74l-26.198,5.873c0,0-66.952,7.777-84.799,4.937
			c-17.848-2.84-22.946-16.844-22.946-16.844s18.636-21.492,50.773-27.721c3.02-0.589,6.153-1.039,9.406-1.326
			c5.459-0.478,10.708-0.974,16.066-0.417C1640.047,771.69,1645.387,801.74,1645.387,801.74z"/>
		<path style="fill:#FFB27D;" d="M1587.687,766.239c-3.252,6.416-14.036,13.115-20.904,11.725c-5.512-1.114-2.16-6.953-1.641-7.906
			c1.27-2.359,2.57-3.142,2.16-5.447l-0.588-3.327l-0.016-0.069l-0.968-5.455l-0.937-5.278l-3.174-17.871l9.484,16.604l1.61,2.828
			l1.486,2.597l4.057,7.099C1580.045,764.872,1587.656,766.239,1587.687,766.239z"/>
		<g>
			<g>
				<path style="fill:#FFB27D;" d="M1540.784,912.724c0,0-15.771,0.613-21.64,7.693c-5.869,7.08-7.972,20.528-3.395,16.906
					c4.577-3.622,9.138-9.854,9.138-9.854s-9.112,13.768-4.945,14.488c4.167,0.72,11.976-11.33,11.976-11.33
					s-9.528,17.241-5.369,16.656c4.159-0.585,11.303-13.733,11.303-13.733s-8.218,16.392-3.404,15.601s6.703-13.59,10.871-12.87
					c4.167,0.72,20.967,2.183,24.399-9.069L1540.784,912.724z"/>
			</g>
			<g>
				<path style="fill:#E9845C;" d="M1525.197,927.604l-0.615-0.276c0.082-0.188,2.102-4.468,5.102-4.97l0.113,0.678
					C1527.154,923.475,1525.215,927.566,1525.197,927.604z"/>
			</g>
			<g>
				<path style="fill:#E9845C;" d="M1532.225,930.767l-0.621-0.276c0.082-0.176,1.97-4.367,5.993-5.874l0.238,0.628
					C1534.082,926.663,1532.244,930.729,1532.225,930.767z"/>
			</g>
			<g>
				<path style="fill:#E9845C;" d="M1538.161,933.691l-0.615-0.276c0.1-0.226,2.485-5.296,5.723-5.547l0.05,0.678
					C1540.476,928.771,1538.186,933.641,1538.161,933.691z"/>
			</g>
		</g>
		<path style="fill:#331832;" d="M1597.072,808.378c0.473,3.392,11.673,4.655,25.015,2.822c13.342-1.833,23.775-6.069,23.301-9.46
			c-0.473-3.392-11.673-4.655-25.015-2.822C1607.031,800.75,1596.598,804.986,1597.072,808.378z"/>
		<g>
			<path style="fill:#FFB27D;" d="M1564.933,933.551c50.047-20.827,69.057-48.174,74.575-73.174
				c7.14-32.352,0.656-55.414,0.331-56.573c0,0-2.739-3.355-19.585-0.305c-15.013,2.718-15.875,6.243-15.875,6.243
				c0.057,0.212,6.323,20.273,0.661,44.384c-7.232,30.793-27.619,46.57-64.257,58.598
				C1540.784,912.724,1555.879,937.319,1564.933,933.551z"/>
		</g>
		<g>
			<path style="fill:#331832;" d="M1597.072,808.602c-0.1,0-0.188-0.075-0.213-0.176c-0.025-0.113-2.579-10.994-1.261-18.863
				c0.025-0.125,0.169-0.226,0.257-0.176c0.119,0.012,0.201,0.125,0.182,0.251c-1.311,7.781,1.224,18.575,1.249,18.688
				c0.031,0.113-0.044,0.238-0.163,0.263C1597.104,808.589,1597.091,808.602,1597.072,808.602z"/>
		</g>
		<g>
			<path style="fill:#E9845C;" d="M1620.742,888.209c-0.351,0-0.678-0.075-0.966-0.251c-0.464-0.264-0.803-0.728-0.973-1.355
				c-0.414-1.531,0.144-3.891,1.468-6.162c1.901-3.288,4.65-5.183,6.313-4.179c0.464,0.264,0.803,0.74,0.973,1.368
				c0.414,1.531-0.144,3.891-1.468,6.15C1624.52,886.489,1622.361,888.209,1620.742,888.209z M1625.612,876.913
				c-1.155,0-3.075,1.431-4.562,3.978c-1.18,2.033-1.719,4.179-1.374,5.472c0.107,0.389,0.295,0.665,0.552,0.816
				c1.01,0.514,3.339-0.854,5.083-3.853c1.18-2.033,1.719-4.179,1.374-5.472c-0.107-0.389-0.295-0.665-0.552-0.816
				C1625.988,876.963,1625.813,876.913,1625.612,876.913z"/>
		</g>
		<path style="fill:#331832;" d="M1574.2,754.638c0,0-2.663,5.086-7.487,6.646l-0.016-0.069l-0.968-5.455L1574.2,754.638z"/>
		<g>
			<path style="fill:#5C305D;" d="M1545.835,729.026c0,0-0.184,4.557,2.141,9.717c2.325,5.159,4.937-9.33,4.937-9.33
				L1545.835,729.026z"/>
			<path style="fill:#FFB27D;" d="M1547.661,740.445c-0.921-10.751,5.617-20.081,14.602-20.839
				c8.985-0.758,17.015,7.344,17.935,18.095c0.92,10.751-5.617,20.081-14.601,20.839
				C1556.612,759.298,1548.582,751.196,1547.661,740.445z"/>
			<path style="fill:#331832;" d="M1579.392,732.151l-7.896,0.881c-1.736,0.193-3.488-0.374-4.721-1.602
				c-2.123-2.114-4.305-2.962-11.448-1.131c-9.045,2.319-16.255-1.769-18.284-6.291c-2.071-4.615,1.874-8.904,6.962-7.594
				c5.089,1.31,1.877-3.914,6.149-5.47c7.984-2.907,10.913,3.055,17.607,1.387c8.777-2.186,26.073,1.042,21.968,18.107
				L1579.392,732.151z"/>
			<g>
				<path style="fill:#080435;" d="M1562.915,738.455c-0.094-0.034-0.172-0.11-0.204-0.213c-0.053-0.173,0.044-0.357,0.218-0.41
					c0.103-0.031,2.417-0.982,4.191,1.296c0.112,0.144,0.092,0.348-0.05,0.462c-0.142,0.114-0.323,0.064-0.466-0.05
					c-1.43-1.135-3.394-1.106-3.48-1.08C1563.053,738.482,1562.98,738.479,1562.915,738.455z"/>
			</g>
			<path style="fill:#080435;" d="M1565.223,742.267c-0.04,0.783-0.537,1.394-1.109,1.365c-0.573-0.029-1.004-0.687-0.964-1.47
				c0.04-0.783,0.537-1.394,1.109-1.365C1564.832,740.826,1565.264,741.484,1565.223,742.267z"/>
			<g>
				<path style="fill:#080435;" d="M1550.743,740.099c-0.078,0.003-0.156-0.039-0.21-0.122c-0.091-0.141-0.078-0.347,0.03-0.461
					c0.064-0.067,1.42-1.803,3.379-0.344c0.123,0.092,0.172,0.289,0.105,0.447c-0.066,0.158-0.21,0.178-0.346,0.125
					c-1.365-0.525-2.753,0.227-2.806,0.282C1550.85,740.073,1550.797,740.097,1550.743,740.099z"/>
			</g>
			<path style="fill:#080435;" d="M1554.416,742.747c0.263,0.739,0.038,1.492-0.502,1.681c-0.54,0.189-1.192-0.256-1.455-0.995
				c-0.263-0.739-0.039-1.492,0.502-1.681C1553.501,741.563,1554.153,742.008,1554.416,742.747z"/>
			<path style="fill:#5C305D;" d="M1589.73,730.438c0,0-2.814,12.575-10.191,15.054c0,0,4.196-10.029-9.859-12.535
				C1569.681,732.957,1581.105,728.542,1589.73,730.438z"/>
			<path style="fill:#FFB27D;" d="M1580.46,739.052c-1.392,1.372-3.522,1.483-4.757,0.249c-1.235-1.234-1.108-3.347,0.284-4.719
				c1.392-1.372,3.522-1.483,4.757-0.249C1581.979,735.567,1581.852,737.68,1580.46,739.052z"/>
			<path style="fill:#FFFFFF;" d="M1554.279,749.457c0,0,5.266,0.256,10.584-1.445c0,0,0.303,5.165-5.413,5.364
				C1556.125,753.491,1554.279,749.457,1554.279,749.457z"/>
			<g>
				<path style="fill:#331832;" d="M1544.681,715.466l-0.075-0.427c2.115-0.389,1.933-2.096,1.926-2.171l0.439-0.05
					C1546.978,712.843,1547.222,715.014,1544.681,715.466z"/>
			</g>
			<g>
				<path style="fill:#FFFFFF;" d="M1552.186,728.33c-0.433-0.025-10.592-0.766-12.13-5.786c-0.446-1.443-0.402-2.498,0.125-3.2
					c0.722-0.954,2.209-1.079,3.671-1.079c0.527,0.013,1.029,0.025,1.481,0.013v0.226c-0.477,0-0.973-0.013-1.481-0.013
					c-1.412,0-2.836,0.113-3.495,0.991c-0.483,0.64-0.508,1.619-0.088,2.987c1.493,4.882,11.829,5.635,11.929,5.635L1552.186,728.33
					z"/>
			</g>
			<g>
				<path style="fill:#FFFFFF;" d="M1565.031,714.562c-5.19,0-8.233-2.272-8.277-2.309l0.138-0.176
					c0.05,0.05,5.811,4.317,14.979,1.004l0.075,0.201C1569.355,714.223,1567.033,714.562,1565.031,714.562z"/>
			</g>
		</g>
		<g>
			<path style="fill:#E9845C;" d="M1498.904,849.089c-0.006,0-0.006,0-0.013,0c-0.289-0.013-0.515-0.251-0.508-0.54
				c0.257-13.504-6.796-24.31-6.865-24.423c-0.163-0.238-0.094-0.565,0.144-0.728c0.232-0.138,0.558-0.088,0.722,0.151
				c0.075,0.113,7.304,11.182,7.041,25.025C1499.418,848.851,1499.186,849.089,1498.904,849.089z"/>
		</g>
		<g>
			<path style="fill:#E9845C;" d="M1454.551,786.313c-0.245,0-0.464-0.176-0.515-0.427c-0.056-0.276,0.132-0.552,0.414-0.615
				c0.075-0.013,8.057-1.669,11.553-7.392c0.157-0.251,0.477-0.339,0.715-0.163c0.251,0.138,0.326,0.464,0.176,0.715
				c-3.734,6.112-11.898,7.794-12.243,7.869C1454.62,786.3,1454.582,786.313,1454.551,786.313z"/>
		</g>
	</g>
	<g>
		<path style="fill:#FFB27D;" d="M1928.602,1032.368c-0.427-4.008-3.039-11.877-3.543-15.883c-0.219-1.737-1.351-7.561-3.085-7.724
			c-1.507-0.141-2.766,4.725-3.081,7.139c-9.358-11.41-25.549-22.848-7.865,0.825c-0.01,0.007-0.021,0.015-0.031,0.022
			c-1.668-1.922-13.448-16.43-15.756-13.107c-1.69,2.435,8.345,14.094,11.057,17.284c-0.025,0.026-0.049,0.052-0.074,0.078
			c-3.017-3.025-11.658-12.629-13.392-10.391c-2.281,2.946,9.235,14.987,9.235,14.987s-9.32-10.216-10.438-5.961
			c-0.63,2.398,5.068,8.274,8.666,11.884v0c0,0,0.001,0.001,0.001,0.001c0.754,0.757,1.418,1.416,1.909,1.92
			c0.408,0.419,0.812,0.748,1.211,1.013c6.361,5.682,11.316,8.348,11.316,8.348s5.337,4.123,10.564-0.304
			C1928.629,1039.678,1928.787,1034.106,1928.602,1032.368z"/>
		<path style="fill:#FFB27D;" d="M2013.024,1111.868c0,0-8.381,36.031-9.217,80.93l33.685-115.744c0,0-22.714-6.164-51.328-14.546
			c-20.509-6.008-55.592-33.683-59.461-35.952c-4.18-2.451-19.072,15.676-19.072,15.676
			C1904.303,1048.132,1957.58,1098.456,2013.024,1111.868z"/>
		<g>
			<g>
				<path style="fill:#58A1C7;" d="M2091.179,1108.395c0,0-9.415-23.802-42.789-25.81c-50.91-3.062-57.395,58.261-64.284,128.458
					c0,0,53.297,1.812,119.187,24.132C2103.293,1235.176,2114.145,1114.869,2091.179,1108.395z"/>
			</g>
			<g>
				<path style="fill:#58A1C7;" d="M2111.393,1100.473l-20.421,21.818c0,0-73.847,3.326-81.607-11.289
					c-11.849-22.318,5.412-40.112,5.412-40.112s14.508,2.329,45.419,7.948C2093.173,1084.833,2111.393,1100.473,2111.393,1100.473z"
					/>
			</g>
			<g>
				<path style="fill:#331832;" d="M2064.32,1128.468c2.059,3.852,14.382,0.886,27.523-6.625
					c13.141-7.511,22.125-16.722,20.066-20.574c-2.059-3.852-14.382-0.886-27.523,6.625S2062.26,1124.616,2064.32,1128.468z"/>
			</g>
			<g>
				<g>
					<path style="fill:#FFB27D;" d="M2067.072,1075.823l0.373-10.709l0.121-3.455l0.708-20.317l-6.853,18.086l-4.112,10.856
						l-1.172,3.095c-0.957,2.525-3.62,3.877-6.172,3.17l-0.044-0.012c-2.233,1.491-1.976,6.959,1.311,8.973
						c6.098,3.736,14.237,0.068,20.492-4.058C2071.706,1081.44,2066.939,1079.623,2067.072,1075.823z"/>
				</g>
				<g>
					<path style="fill:#331832;" d="M2067.596,1064.833c-0.048,0.095-0.098,0.189-0.152,0.281
						c-3.012,5.441-10.115,5.219-10.115,5.219l-0.021-0.048l4.112-10.857c2.111,0.198,4.995,0.747,6.145,2.231
						C2068.166,1062.435,2068.293,1063.464,2067.596,1064.833z"/>
				</g>
				<g>
					
						<ellipse transform="matrix(0.3892 -0.9211 0.9211 0.3892 300.4988 2540.7351)" style="fill:#FFB27D;" cx="2066.205" cy="1043.763" rx="22.34" ry="17.815"/>
				</g>
				<g>
					<path style="fill:#EF8062;" d="M2050.135,1061.617c0.174,0,0.325-0.131,0.345-0.307c0.021-0.189-0.115-0.363-0.305-0.384
						c-0.051-0.005-5.126-0.637-7.868-4.702c-0.875-1.296-1.156-2.4-0.836-3.283c0.431-1.189,1.847-1.616,1.861-1.619
						c0.183-0.053,0.289-0.245,0.235-0.429c-0.053-0.184-0.245-0.283-0.429-0.237c-0.072,0.021-1.764,0.523-2.319,2.043
						c-0.403,1.104-0.096,2.419,0.91,3.91c2.925,4.339,8.145,4.982,8.366,5.006
						C2050.109,1061.617,2050.122,1061.617,2050.135,1061.617z"/>
				</g>
				<g>
					<g>
						<path style="fill:#331832;" d="M2077.727,1031.793c-2.272,3.39-2.67,6.684-14.945,4.074c0,0-2.379,0.347-1.559-1.7
							c0.82-2.047,4.988-3.757,4.575-6.789c0,0-15.656,12.938-16.651,8.108c-0.996-4.83,0.868-17.997,10.191-22.054
							c9.323-4.056,29.115,3.708,29.676,10.968C2089.841,1035.097,2079.671,1028.892,2077.727,1031.793z"/>
					</g>
				</g>
				<g>
					<g>
						<path style="fill:#331832;" d="M2087.552,1028.402c0,0-5.421-1.117-6.234,1.21c-0.812,2.327-6.168,4.867-3.601,7.828
							c2.567,2.962,2.938,4.176,1.79,6.627c-0.801,1.708,0.377,6.914-0.163,10.86c-0.235,1.716-2.572,4.464-2.572,4.464
							s14.208,1.705,18.641-13.685C2098.296,1035.692,2091.204,1028.625,2087.552,1028.402z"/>
					</g>
				</g>
				<g>
					<path style="fill:#FFB27D;" d="M2080.528,1054.456c-2.638,0.896-5.262-0.154-5.861-2.346c-0.599-2.191,1.053-4.694,3.691-5.59
						c2.637-0.896,5.262,0.154,5.861,2.346C2084.818,1051.057,2083.165,1053.56,2080.528,1054.456z"/>
				</g>
				<g>
					<path style="fill:#EF8062;" d="M2076.561,1069.382c2.145,0,4.475-1.795,5.192-4.115c1.326-4.294-0.605-8.595-0.687-8.777
						c-0.087-0.189-0.304-0.28-0.504-0.187c-0.19,0.085-0.276,0.309-0.189,0.501c0.02,0.043,1.892,4.224,0.652,8.238
						c-0.665,2.152-3.011,3.856-4.908,3.547c-1.877-0.291-2.89-2.368-2.853-5.846c0.096-8.798,5.825-9.371,6.07-9.39
						c0.209-0.019,0.364-0.2,0.348-0.408c-0.017-0.208-0.166-0.357-0.408-0.349c-0.067,0.005-6.665,0.624-6.77,10.137
						c-0.06,5.462,2.425,6.44,3.495,6.606C2076.183,1069.369,2076.372,1069.382,2076.561,1069.382z"/>
				</g>
				<g>
					<g>
						<path style="fill:#331832;" d="M2097.329,1031.854c0.119,0.027,0.249,0.005,0.357-0.071c0.206-0.146,0.258-0.436,0.115-0.647
							c-2.71-4.021-6.783-3.381-6.954-3.351c-0.247,0.042-0.413,0.281-0.373,0.534c0.041,0.253,0.273,0.424,0.521,0.384
							c0.15-0.025,3.685-0.562,6.059,2.962C2097.122,1031.765,2097.221,1031.829,2097.329,1031.854z"/>
					</g>
				</g>
				<g>
					<g>
						<path style="fill:#331832;" d="M2090.555,1026.68c0.201,0.046,0.414-0.053,0.507-0.251c0.057-0.123,1.404-3.012,0.612-4.739
							c-0.108-0.233-0.38-0.33-0.604-0.223c-0.227,0.109-0.324,0.386-0.218,0.619c0.505,1.1-0.267,3.216-0.607,3.937
							c-0.109,0.232-0.014,0.51,0.211,0.622C2090.489,1026.66,2090.522,1026.672,2090.555,1026.68z"/>
					</g>
				</g>
				<g>
					<g>
						<path style="fill:#E9633E;" d="M2053.489,1054.996c0,0,5.246,2.18,11.242,2.33c0,0-1.537,5.516-7.401,3.648
							C2053.92,1059.888,2053.489,1054.996,2053.489,1054.996z"/>
					</g>
					<g>
						<path style="fill:#FFFFFF;" d="M2053.489,1054.996c0,0,0.878,1.586,3.871,2.733c2.992,1.147,7.372-0.403,7.372-0.403
							S2057.69,1056.646,2053.489,1054.996z"/>
					</g>
					<g>
						<g>
							<path style="fill:#080435;" d="M2051.823,1042.021c-0.113-0.019-0.216-0.09-0.273-0.202
								c-0.096-0.189-0.026-0.422,0.158-0.521c0.108-0.058,2.5-1.651,4.963,0.604c0.155,0.142,0.176,0.383,0.041,0.545
								c-0.135,0.162-0.348,0.142-0.532,0.041c-1.839-1.007-4.032-0.554-4.122-0.506
								C2051.983,1042.022,2051.9,1042.034,2051.823,1042.021z"/>
						</g>
					</g>
					<g>
						<g>
							<path style="fill:#080435;" d="M2066.707,1044.913c-0.105-0.044-0.189-0.137-0.219-0.259
								c-0.05-0.206,0.072-0.416,0.274-0.471c0.119-0.032,2.813-1.037,4.693,1.719c0.118,0.174,0.084,0.413-0.086,0.54
								c-0.169,0.127-0.371,0.059-0.527-0.081c-1.559-1.399-3.798-1.458-3.897-1.432
								C2066.862,1044.951,2066.779,1044.943,2066.707,1044.913z"/>
						</g>
					</g>
					<path style="fill:#080435;" d="M2065.104,1048.343c-0.267,1.013,0.181,2.007,1,2.222c0.819,0.214,1.699-0.433,1.966-1.446
						s-0.18-2.007-0.999-2.222C2066.251,1046.682,2065.371,1047.33,2065.104,1048.343z"/>
					<path style="fill:#080435;" d="M2054.189,1045.852c0.076,0.986,0.758,1.738,1.523,1.68c0.765-0.059,1.324-0.906,1.248-1.892
						c-0.076-0.986-0.758-1.738-1.523-1.68S2054.113,1044.866,2054.189,1045.852z"/>
				</g>
			</g>
			<path style="fill:#613962;" d="M2103.293,1235.176c-1.739,6.956-32.282,21.2-65.471,13.828
				c-33.188-7.372-55.455-31.004-53.716-37.96s30.801-9.931,63.989-2.559C2081.283,1215.857,2105.032,1228.22,2103.293,1235.176z"/>
			<g>
				<path style="fill:#331832;" d="M2045.794,1454.929c0,0,0.543,8.911-5.709,11.912c-6.252,3-24.808,6.69-17.297,11.874
					c4.31,2.975,23.074-0.585,28.424-0.992c5.351-0.407,10.565,1.379,14.248-2.252c4.052-3.995-1.926-21.89-1.926-21.89
					s-4.42,2.587-8.581,2.802C2048.957,1456.693,2045.794,1454.929,2045.794,1454.929z"/>
				<path style="fill:#331832;" d="M2138.186,1420.608c0,0,14.587,34.822,11.947,41.179c-2.64,6.357-13.991,21.335-4.897,20.252
					c5.218-0.621,16.811-15.641,20.526-19.469c3.716-3.829,8.807-5.933,9.107-11.068c0.33-5.649-18.339-23.234-18.339-23.234
					s-2.374-25.574-5.332-22.672C2146.936,1409.779,2138.186,1420.608,2138.186,1420.608z"/>
				<path style="fill:#366F90;" d="M1991.165,1235.18c1.946-28.322,63.125,3.071,63.125,3.071s25.755,194.342,14.009,221.614
					c-2.318,5.383-12.311,5.294-16.988,4.789c-33.086-3.571-41.294-100.701-49.929-143.389
					C1997.05,1299.849,1989.988,1252.311,1991.165,1235.18z"/>
				<path style="fill:#366F90;" d="M2096.666,1234.618c-14.95-14.041-56.155-19.247-102.287-16.537
					c-2.118,0.124-3.219,4.215-3.345,6.184c0,0-0.179,17.446,0.229,22.736c0.905,11.711,110.335,7.415,110.335,7.415
					S2098.963,1236.775,2096.666,1234.618z"/>
				<path style="fill:#366F90;" d="M2025.26,1236.533c0,0,39.352,151.692,103.457,204.849c6.21,5.15,14.979,6.013,22.158,2.295
					l11.365-5.887c7.755-4.017,10.709-13.514,6.571-21.143c-17.021-31.378-57.521-110.882-71.209-180.505L2025.26,1236.533z"/>
				<g>
					<path style="fill:#331832;" d="M2066.504,1351.629c-0.169-0.402-17.056-40.512-22.942-63.279
						c-5.817-22.515-21.612-28.891-21.775-28.953l0.289-0.728c0.157,0.063,16.322,6.564,22.245,29.481
						c5.874,22.716,22.741,62.777,22.911,63.178L2066.504,1351.629z"/>
				</g>
			</g>
		</g>
		<g>
			<path style="fill:#EF8062;" d="M1991.777,1166.957c3.869,1.033,7.78,0.537,11.268-1.424c0.647-0.364,0.066-1.358-0.583-0.993
				c-3.224,1.813-6.804,2.262-10.379,1.308C1991.365,1165.656,1991.059,1166.765,1991.777,1166.957L1991.777,1166.957z"/>
		</g>
		<g>
			<polygon style="fill:#DDE2A2;" points="2053.243,1287.474 1846.76,942.869 1712.404,1022.191 1918.888,1366.795 			"/>
			<path style="fill:#B7BC74;" d="M1694.015,1028.04l5.373,8.702l27.073,43.87l69.721,112.977l108.316,175.516
				c3.155,5.118,9.875,6.764,15.075,3.696l58.303-34.422l12-7.085l7.215-4.259l16.079-9.487l24-14.171l14.486-8.552
				c3.435-2.027,5.364-5.626,5.394-9.337c0.026-1.824-0.415-3.681-1.369-5.39l-0.298-0.542l-4.466-8.024l-2.964-5.336l-2.964-5.336
				l-37.39-67.252l-18.329-32.959l-1.46-2.633l-8.53-15.34l-13.377-24.067l-4.026-7.239l-14.61-26.276l-4.567-8.219l-7.44-13.381
				l-3.08-5.537l-1.424-2.564l-3.667-6.6l-3.864-6.948l-8.457-15.201l-8.126-14.625l-0.279-0.5l-0.026-0.041l-2.19-3.947
				l-2.604-4.69l-0.009-0.014l-9.133-16.424l-1.701-3.049l-0.001-0.007l-18.214-32.765l-0.126-0.229l-0.566-1.007l-0.388-0.702
				l-0.91-1.64c-4.385-7.871-12.172-12.689-20.54-13.644c0,0,0,0-0.007,0.001c-5.455-0.622-11.151,0.403-16.304,3.29l-4.93,2.768
				l-0.375,0.207l-7.985,4.485l-8.493,4.764l-18.312,10.274l-0.007,0.001l-14.784,8.296l-7.742,4.349l-10.375,5.817l-29.012,16.279
				l-25.797,14.48l-0.007,0.001l-4.222,2.372l-3.598,2.014C1692.554,1015.815,1690.746,1022.743,1694.015,1028.04z
				 M1738.924,1011.657l5.019-2.902l42.851-24.772l13.276-7.679l0.166-0.098l21.928-12.68l7.189-4.153l10.669-6.17
				c1.546-0.893,3.223-1.374,4.894-1.472c0.379-0.024,0.768-0.035,1.144-0.015l0.007-0.001c3.651,0.154,7.135,2.11,9.097,5.485
				l0.669,1.151l0.285,0.492l0.893,1.546l0.178,0.305l0.91,1.566l33.115,57.086l2.045,3.536l0.212,0.353l7.408,12.782l5.89,10.155
				l7.406,12.767l0.001,0.007l2.051,3.528l1.766,3.035l1.74,3.001l8.121,14.001l1.054,1.823l0.001,0.007l12.671,21.84l19.89,34.282
				l8.041,13.87l12.171,20.981l15.759,27.164l19.596,33.783l18.062,31.143l5.095,8.782c0.089,0.152,0.171,0.306,0.253,0.459
				c1.41,2.719,1.563,5.781,0.645,8.504c-0.811,2.404-2.457,4.541-4.825,5.938l-49.267,29.088l-4.723,2.784l-12.131,7.165
				l-39.927,23.569c-5.207,3.076-11.936,1.416-15.084-3.71l-92.673-150.837l-47.94-78.015l-7.874-12.815l-23.561-38.348l-2.046-3.33
				l-18.014-29.319l-1.596-2.598c-0.299-0.483-0.556-0.979-0.762-1.486c-0.707-1.668-0.963-3.441-0.802-5.169
				c0.149-1.77,0.736-3.49,1.713-4.994c0.691-1.07,1.576-2.034,2.647-2.828c0.341-0.255,0.698-0.498,1.08-0.713l8.916-5.153
				L1738.924,1011.657z"/>
			<path style="fill:#BCC480;" d="M1871.884,1101.901c31.784-5.94,68.492,2.731,77.663,51.163
				c5.972,31.54-16.031,63.613-47.053,72.696c-37.71,11.042-65.416-7.744-78.801-52.449
				C1814.483,1142.549,1832.148,1109.327,1871.884,1101.901z"/>
			<path style="fill:#BCC480;" d="M1827.655,1049.351c11.972-2.237,25.799,1.029,29.254,19.272
				c2.25,11.88-6.039,23.961-17.724,27.383c-14.204,4.159-24.641-2.917-29.682-19.756
				C1806.033,1064.662,1812.687,1052.148,1827.655,1049.351z"/>
			<path style="fill:#BCC480;" d="M1933.747,1232.666c11.972-2.238,25.799,1.029,29.254,19.272
				c2.25,11.88-6.039,23.962-17.724,27.383c-14.204,4.159-24.641-2.917-29.682-19.756
				C1912.125,1247.978,1918.779,1235.464,1933.747,1232.666z"/>
			<g>
				<path style="fill:#DDE2A2;" d="M1835.805,1186.599c0.001,0.007,0.009,0.014,0.009,0.021l0.056,0.119
					c0.386,0.761,0.983,1.353,1.691,1.736c1.144,0.632,2.577,0.705,3.841,0.076l6.064-3.024c1.676-0.84,3.857-0.565,4.937,0.947
					c5.288,7.374,11.077,11.539,17.022,12.72l0.007-0.001c1.673,0.342,3.365,0.44,5.055,0.304c3.38-0.266,6.783-1.46,10.138-3.545
					c0.18-0.114,0.359-0.228,0.537-0.349c1.391-0.899,2.654-1.903,3.79-2.996c3.837-3.684,6.24-8.396,7.467-13.971
					c0.178-0.775,0.325-1.561,0.455-2.367c0.077-0.537,0.154-1.073,0.215-1.623c0.402-3.375,0.447-7.023,0.179-10.917
					c0.003-0.044-0.002-0.088-0.006-0.132c-0.032-0.533-0.072-1.058-0.117-1.567c-0.291-3.833-0.727-7.078-0.949-9.817
					c-0.166-2.047-0.214-3.804,0.013-5.311c0.375-2.499,1.482-4.302,4.005-5.559c4.24-2.117,10.326-1.934,14.864,4.07
					c0.696,0.913,1.347,1.962,1.955,3.163c2.479,4.901,3.253,9.221,3.424,12.53c0.005,0.051,0.01,0.094,0.008,0.146
					c0.204,2.278,2.23,3.979,4.538,3.713l1.351-0.146c2.149-0.243,3.752-2.082,3.657-4.224c-0.137-2.982-0.732-6.41-2.16-10.31
					c-0.712-1.932,0.167-4.093,2.026-5.019l4.75-2.375c0.21-0.102,0.41-0.226,0.588-0.354c1.189-0.864,1.806-2.293,1.661-3.71
					l-0.01-0.094l-0.007,0.001c-0.054-0.45-0.188-0.899-0.4-1.325c-0.699-1.375-2.06-2.183-3.506-2.247
					c-0.679-0.033-1.37,0.104-2.02,0.428l-5.7,2.847c-1.67,0.832-4.042,0.687-4.936-0.94c-0.806-1.482-1.669-2.81-2.585-4.002
					c-0.543-0.708-1.095-1.371-1.679-1.979c-4.968-5.328-11.027-7.042-16.799-6.398c-2.738,0.296-5.407,1.128-7.873,2.358
					c-0.601,0.297-1.162,0.626-1.691,0.989c-5.008,3.364-7.058,9.229-7.683,16.153c-0.118,1.217-0.189,2.458-0.219,3.731
					c-0.005,0.382-0.018,0.758-0.015,1.147c-0.022,1.721,0.02,3.486,0.109,5.277c0.103,2.362,0.283,4.759,0.477,7.148
					c0.064,0.911,0.109,1.781,0.128,2.602c0.045,1.516,0.01,2.885-0.111,4.139l0.001,0.007c-0.151,1.609-0.447,3.013-0.892,4.263
					c-0.531,1.479-1.27,2.723-2.251,3.822c-1.246,1.384-2.87,2.52-4.938,3.555c-0.426,0.213-0.854,0.404-1.284,0.58
					c-0.218,0.096-0.444,0.185-0.664,0.259c-6.386,2.389-12.997,0.879-16.831-6.71c-1.095-2.157-1.912-4.386-2.5-6.61
					c-0.732-2.84-1.081-5.661-1.118-8.316c-0.039-2.449-2.2-4.328-4.656-4.002l-1.399,0.18c-2.022,0.266-3.559,1.959-3.578,3.988
					c-0.005,0.243-0.001,0.492,0.003,0.741c0.023,1.584,0.174,3.265,0.46,4.984c0.316,2.002,0.813,4.059,1.47,6.092l0.001,0.007
					c0.205,0.64,0.425,1.278,0.667,1.915c0.738,1.966-0.1,4.174-1.994,5.118l-5.204,2.605
					C1835.62,1182.145,1834.798,1184.587,1835.805,1186.599z"/>
			</g>
		</g>
		<g>
			<g>
				<g>
					<g>
						<path style="fill:#FFB27D;" d="M1996.3,1134.151c0,0-11.382-13.586-21.609-13.776s-23.43,7.49-17.115,8.988
							s14.899,1.126,14.899,1.126s-18.304,1.677-16.067,5.893c2.237,4.217,18.142,2.601,18.142,2.601s-21.625,3.774-18.254,7.056
							c3.371,3.282,19.78,0.297,19.78,0.297s-19.983,4.335-15.98,8.053s16.491-3.692,18.728,0.525s5.188,10.616,24.709,15.251
							L1996.3,1134.151z"/>
					</g>
				</g>
				<g>
					<path style="fill:#EC865C;" d="M1979.982,1132.152c0.197,0,0.393-0.077,0.538-0.232c0.277-0.296,0.261-0.76-0.036-1.037
						c-2.632-2.451-7.963-1.16-8.187-1.104c-0.395,0.099-0.634,0.496-0.536,0.888c0.1,0.392,0.494,0.621,0.892,0.536
						c0.047-0.016,4.777-1.152,6.827,0.752C1979.622,1132.088,1979.802,1132.152,1979.982,1132.152z"/>
				</g>
				<g>
					<path style="fill:#EC865C;" d="M1983.512,1140.824c0.248,0,0.49-0.125,0.629-0.349c0.213-0.347,0.104-0.797-0.242-1.008
						c-4.219-2.579-9.327-1.248-9.54-1.189c-0.392,0.104-0.623,0.507-0.519,0.896c0.106,0.392,0.507,0.621,0.902,0.52
						c0.047-0.016,4.721-1.221,8.386,1.021C1983.248,1140.79,1983.381,1140.824,1983.512,1140.824z"/>
				</g>
			</g>
			<path style="fill:#FFB27D;" d="M2109.089,1105.123c0,0,8.533,69.445-14.208,82.288c-22.741,12.843-91.348-17.245-91.348-17.245
				l-7.232-36.014c0,0,67.598,21.866,70.287,16.158c2.688-5.708,0.282-20.921,5.915-29.938
				C2079.565,1109.067,2108.324,1097.037,2109.089,1105.123z"/>
		</g>
		<g>
			<path style="fill:#EF8062;" d="M2062.2,1152.044c8.87,2.095,14.313,9.33,19.323,16.362c0.427,0.599,1.428,0.025,0.997-0.581
				c-5.184-7.276-10.851-14.726-20.013-16.89C2061.784,1150.764,2061.476,1151.873,2062.2,1152.044L2062.2,1152.044z"/>
		</g>
	</g>
	<path style="opacity:0.6;fill:#FFFFFF;" d="M1714.385,222.417c0,0-19.464-41.949-68.715-36.693
		c-49.251,5.256-43.388,47.306-66.841,43.364c-23.453-3.942-56.287,0-63.323,26.281s-38.697,11.826-39.87,34.165
		c-1.173,22.339,36.352,38.107,79.74,18.397c43.388-19.711,64.495,15.313,125.473,8.97c60.977-6.342,68.532-14.227,104.625-10.284
		c36.092,3.942,35.236-23.75,18.818-42.148C1787.874,246.071,1721.421,247.824,1714.385,222.417z"/>
	<path style="opacity:0.6;fill:#FFFFFF;" d="M1971.09,350.737c0,0-11.971-25.801-42.263-22.568
		c-30.292,3.233-26.685,29.095-41.11,26.671c-14.425-2.425-34.619,0-38.946,16.164c-4.327,16.164-23.8,7.274-24.522,21.013
		s22.358,23.438,49.043,11.315c26.685-12.123,39.667,9.418,77.171,5.517c37.504-3.901,42.15-8.75,64.349-6.325
		c22.199,2.425,21.672-14.607,11.574-25.923C2016.289,365.286,1975.417,366.363,1971.09,350.737z"/>
	<path style="opacity:0.6;fill:#FFFFFF;" d="M995.328,313.625c0,0-8.01-17.262-28.277-15.099
		c-20.267,2.163-17.854,19.467-27.505,17.845s-23.162,0-26.058,10.815c-2.895,10.815-15.924,4.867-16.407,14.059
		c-0.482,9.193,14.959,15.682,32.814,7.57c17.854-8.111,26.54,6.301,51.633,3.691c25.093-2.61,28.201-5.854,43.054-4.232
		c14.852,1.622,14.5-9.773,7.744-17.344S998.223,324.08,995.328,313.625z"/>
	<g>
		<g>
			<path style="fill:#F4A26F;" d="M991.962,1198.02l19.969-11.196c-1.516-1.259-51.648-37.248-86.808-98.614
				c0,0-1.302-3.316-15.059,2.486c-14.101,5.947-13.488,11.343-13.488,11.343C923.739,1165.957,991.095,1197.299,991.962,1198.02z"
				/>
		</g>
		<g>
			<path style="fill:#EF8062;" d="M880.995,1360.826c-13.615-73.299,5.3-157.61,113.205-177.652
				c70.271-13.052,142.053,38.31,162.668,109.925c25.06,87.054-16.515,150.419-116.061,180.243
				C972.31,1493.864,898.016,1452.464,880.995,1360.826z"/>
			<g style="opacity:0.5;">
				<path style="fill:#FFB27D;" d="M1007.933,1460.015c-18.836,0-37.273-5.136-53.819-15.214
					c-29.024-17.71-49.011-49.01-56.279-88.112c-15.432-83.073,21.744-141.29,99.438-155.729
					c60.264-11.193,124.368,32.004,142.889,96.301c21.828,75.854-14.173,132.035-101.376,158.176
					C1028.55,1458.513,1018.181,1460.015,1007.933,1460.015z M905.636,1355.234c6.844,36.873,25.535,66.26,52.62,82.783
					c23.585,14.391,51.361,17.831,78.252,9.812c83.558-25.026,116.76-76.338,96.022-148.388
					c-17.407-60.47-77.428-101.146-133.804-90.68C893.778,1228.262,898.659,1317.683,905.636,1355.234z"/>
			</g>
			<g>
				<path style="fill:#FFB27D;" d="M1035.605,1410.5l-3.033-8.866c-1.103-3.224-4.356-5.046-7.542-4.307
					c-7.504,1.741-15.276,2.087-21.727,1.094c-3.131-0.482-5.463-3.307-5.49-6.592l-0.018-2.271
					c-0.032-3.973,3.278-7.009,7.075-6.516c7.329,0.95,15.703,0.42,23.756-2.45c13.725-4.891,16.681-16.763,12.625-28.616
					c-3.913-11.437-10.464-15.78-26.903-16.92c-22.564-1.292-45.345-3.916-51.535-22.007c-5.395-15.768-1.562-35.002,20.956-43.863
					c2.687-1.057,3.364-4.8,2.391-7.643l-3.322-9.709c-1.184-3.461,0.539-7.223,3.849-8.403l0,0c3.31-1.179,6.953,0.67,8.137,4.131
					l2.769,8.095c1.081,3.161,4.254,5.048,7.381,4.344c6.289-1.417,11.711-1.598,16.346-1.155c3.322,0.318,5.86,3.288,5.829,6.753
					l-0.019,2.19c-0.034,3.816-3.173,6.705-6.835,6.381c-5.142-0.455-11.967-0.191-20.009,2.674
					c-14.885,5.304-17.218,16.867-14.373,25.185c3.699,10.812,14.474,8.136,33.853,9.629c22.899,1.639,39.687,9.461,47.631,27.304
					c8.475,19.034,2.125,36.701-20.753,49.214c-2.543,1.391-3.372,4.802-2.398,7.649l3.536,10.335
					c1.184,3.461-0.539,7.223-3.849,8.402l-0.193,0.069C1040.433,1415.811,1036.79,1413.961,1035.605,1410.5z"/>
			</g>
		</g>
		<path style="fill:#331832;" d="M824.195,1450.531c0,0,0.246,9.842,6.905,12.617c6.659,2.776,25.954,5.281,18.744,11.608
			c-4.137,3.63-23.633,1.285-29.137,1.284c-5.505,0-10.673,2.399-14.763-1.285c-4.5-4.053,0-24.225,0-24.225s4.75,2.475,9.022,2.364
			C821.121,1452.734,824.195,1450.531,824.195,1450.531z"/>
		<path style="fill:#331832;" d="M709.439,1450.82c0,0-2.772,9.446,2.72,14.124c5.492,4.678,23.099,12.958,14.301,16.78
			c-5.048,2.193-22.896-5.998-28.136-7.68c-5.242-1.682-10.895-0.977-13.665-5.735c-3.047-5.234,7.402-23.067,7.402-23.067
			s3.767,3.807,7.868,5.007C705.839,1451.979,709.439,1450.82,709.439,1450.82z"/>
		<path style="fill:#366F90;" d="M873.597,1209.558c-1.707,18.827-6.893,61.734-11.828,91.407
			c-9.492,57.052-20.699,114.54-26.19,142.099c-1.971,9.861-10.26,17.067-20.09,17.458l-5.28,0.211
			c-10.621,0.429-19.248-8.695-18.473-19.549l12.366-172.818l0.978-13.637l2.37-44.305c8.169,2.618-17.94-9.558-12.366-3.977
			l-11.977-10.52C783.106,1195.928,854.146,1187.685,873.597,1209.558z"/>
		<path style="fill:#366F90;" d="M829.404,1210.652l-25.303,57.714l-76.27,173.953c-4.19,9.56-13.862,15.352-24.039,14.389
			l-4.438-0.421c-10.47-0.993-17.375-11.546-14.299-21.85c0,0,64.345-253.295,80.659-266.34c0,0,16.242,25.499,39.522,32.96
			C813.405,1203.675,823.831,1205.071,829.404,1210.652z"/>
		<path style="fill:#EF8062;" d="M814.887,1057.36c0,0,25.834-32.024,65.043-19.983c8.785,2.698,23.638,12.883,28.051,17.721
			c19.527,21.406,20.913,37.375-0.894,65.381c-12.917,16.589-25.46,47.619-32.773,109.04c0,0-71.237,3.346-120.344-57.996
			C753.97,1171.523,794.908,1077.894,814.887,1057.36z"/>
		<path style="fill:#EF8062;" d="M769.715,1137.066c0,0,11.816-0.265,32.775-6.078c24.808-6.882,70.787-17.662,89.566-14.086
			c31.867,6.067,42.01-20.156,42.01-20.156s-9.428-32.836-38.595-51.438c-2.739-1.752-5.642-3.422-8.722-4.993
			c-5.172-2.633-10.127,0.365-15.715-0.78C819.59,1028.998,769.424,1137.518,769.715,1137.066z"/>
		<g>
			<path style="fill:#FFB27D;" d="M878.22,1042.388c-0.231-4.194,1.097-4.633,3.773-7.201l8.28-7.944l2.41-2.313l14.172-13.599
				l-8.37,16.698l-5.025,10.022l-1.591,3.172c-1.08,2.153-0.672,2.769-0.123,5.464c0.222,1.092-0.786,3.98-4.688,4.187
				C883.347,1051.072,878.514,1047.735,878.22,1042.388z"/>
			<path style="fill:#331832;" d="M889.603,1024.19c0,0-16.143-10.843-10.039-23.366c6.104-12.523,13.07,16.192,13.07,16.192
				l-1.091,7.099L889.603,1024.19z"/>
			<path style="fill:#331832;" d="M890.372,1026.95c-0.036,0.096-0.069,0.194-0.099,0.293c-1.869,5.725,3.137,10.823,3.137,10.823
				l0.049-0.016l5.025-10.022c-1.583-1.431-3.947-3.206-5.802-3.099C891.713,1024.985,890.883,1025.554,890.372,1026.95z"/>
			<path style="fill:#FFB27D;" d="M920.781,1016.844c1.366-10.863-4.829-20.588-13.838-21.721s-17.42,6.754-18.786,17.617
				c-1.367,10.863,4.829,20.588,13.838,21.721C911.004,1035.594,919.415,1027.707,920.781,1016.844z"/>
			<path style="fill:#331832;" d="M890.835,1010.746c0,0,4.965,2.429,8.212-0.895c3.246-3.324,5.431-6.325,14.436-3.606
				c9.005,2.719,11.791-2.504,9.551-6.999c-3.889-7.801-10.218-9.889-21.326-11.724c-5.17-0.854-21.576-0.981-22.144,13.3
				L890.835,1010.746z"/>
			<path style="fill:#FFB27D;" d="M887.838,1014.099c1.344,1.447,3.483,1.647,4.776,0.446c1.294-1.201,1.252-3.349-0.092-4.796
				c-1.344-1.447-3.483-1.647-4.776-0.446C886.452,1010.504,886.494,1012.651,887.838,1014.099z"/>
			<g>
				<path style="fill:#080435;" d="M907.668,1014.769c0.096-0.031,0.178-0.104,0.214-0.207c0.061-0.173-0.029-0.363-0.203-0.425
					c-0.102-0.036-2.392-1.093-4.27,1.144c-0.118,0.141-0.107,0.349,0.032,0.47c0.139,0.121,0.322,0.078,0.47-0.032
					c1.486-1.093,3.461-0.983,3.546-0.954C907.528,1014.791,907.601,1014.791,907.668,1014.769z"/>
			</g>
			<path style="fill:#080435;" d="M905.188,1018.54c0.008,0.795,0.483,1.435,1.06,1.429c0.577-0.006,1.038-0.656,1.029-1.451
				c-0.008-0.795-0.483-1.435-1.06-1.429C905.641,1017.095,905.18,1017.745,905.188,1018.54z"/>
			<g>
				<path style="fill:#080435;" d="M918.859,1016.958c0.078,0.007,0.159-0.033,0.216-0.115c0.097-0.139,0.092-0.349-0.011-0.469
					c-0.061-0.07-1.355-1.886-3.385-0.486c-0.128,0.088-0.185,0.286-0.124,0.449c0.06,0.163,0.204,0.189,0.344,0.141
					c1.395-0.477,2.761,0.342,2.812,0.4C918.753,1016.928,918.806,1016.954,918.859,1016.958z"/>
			</g>
			<path style="fill:#080435;" d="M915.055,1019.494c-0.295,0.739-0.1,1.511,0.436,1.725s1.21-0.211,1.505-0.949
				c0.295-0.739,0.1-1.511-0.436-1.725C916.024,1018.331,915.35,1018.756,915.055,1019.494z"/>
			<g>
				<g>
					<path style="fill:#020202;" d="M906.428,1029.45c-1.813,0-3.997-0.565-5.735-2.673c-0.082-0.1-0.063-0.251,0.031-0.326
						c0.1-0.088,0.245-0.063,0.333,0.025c3.433,4.179,8.704,1.883,8.76,1.858c0.113-0.038,0.257,0,0.307,0.113
						c0.05,0.125,0,0.264-0.119,0.314C909.974,1028.772,908.424,1029.45,906.428,1029.45z"/>
				</g>
				<g>
					<path style="fill:#020202;" d="M900.322,1027.668c-0.013,0-0.025-0.013-0.038-0.013c-0.125-0.013-0.213-0.138-0.195-0.264
						c0.094-0.59,0.514-1.192,1.236-1.795c0.088-0.088,0.251-0.1,0.351-0.025c0.088,0.101,0.113,0.226,0.019,0.314
						c-0.013,0.012-0.038,0.038-0.069,0.063c-0.64,0.527-0.998,1.042-1.073,1.519
						C900.536,1027.58,900.435,1027.668,900.322,1027.668z"/>
				</g>
			</g>
			<g>
				<path style="fill:#331832;" d="M879.445,1000.961c-2.441-2.159-0.916-5.07-0.904-5.095l0.326,0.176
					c-0.063,0.113-1.406,2.686,0.816,4.644L879.445,1000.961z"/>
			</g>
			<g>
				<path style="fill:#331832;" d="M876.609,1004.249l-0.251-0.276c0.081-0.075,1.983-1.807,3.69-1.807c0.031,0,0.063,0,0.094,0.012
					l-0.013,0.351c-0.025,0-0.05,0-0.082,0C878.485,1002.529,876.627,1004.224,876.609,1004.249z"/>
			</g>
		</g>
		<path style="fill:#331832;" d="M834.488,1099.637c2.957,4.416,14.401,2.118,25.563-5.134c11.161-7.252,17.812-16.71,14.855-21.126
			c-2.957-4.416-14.401-2.118-25.563,5.134C838.182,1085.762,831.531,1095.221,834.488,1099.637z"/>
		<g>
			<path style="fill:#020202;" d="M804.683,1268.584l-1.155-0.477l7.323-17.583c4.662-11.107,7.982-16.868,18.292-21.725l0.527,1.13
				c-9.959,4.694-13.033,10.028-17.664,21.072L804.683,1268.584z"/>
		</g>
		<g>
			<g>
				<path style="fill:#FFB27D;" d="M939.667,1175.095l-15.889,19.846c-54.405-41.086-73.343-80.989-81.686-95.036
					c-2.758-4.643-0.238-11.108,6.119-16.565c11.675-10.023,23.122-10.513,24.279-8.441
					C880.954,1090.061,892.681,1139.611,939.667,1175.095z"/>
				<path style="fill:#FFB27D;" d="M933.169,1206.901c-0.816-0.882-1.526-1.658-2.071-2.233c-0.452-0.477-0.801-0.949-1.074-1.418
					c-6.063-7.444-8.727-13.264-8.727-13.264s11.45-16.703,13.465-16.506c4.647,0.456,13.608,3.446,18.245,3.993
					c2.01,0.237,8.717,1.504,8.748,3.551c0.027,1.779-5.777,3.324-8.628,3.725c9.996,8.927,26.103,24.364-1.682,9.3
					c-0.009,0.012-0.019,0.025-0.028,0.037c2.095,1.947,16.981,14.331,13.306,16.133c-3.243,1.59-15.137-7.368-18.618-10.533
					c-0.033,0.029-0.065,0.059-0.098,0.088c3.261,3.527,13.107,12.986,9.54,13.491c-4.477,0.634-16.36-7.994-16.36-7.994
					s8.751,8.877,5.536,9.635C941.84,1215.585,937.062,1211.107,933.169,1206.901L933.169,1206.901
					C933.17,1206.901,933.169,1206.901,933.169,1206.901z"/>
			</g>
		</g>
	</g>
	<g>
		<path style="fill:#FFB27D;" d="M2161.24,1083.672c0,0,3.133,9.746,14.619,10.268c11.487,0.522,12.879,13.227,12.879,13.227
			l20.015-7.658c0,0-5.743-20.885-7.484-22.103C2199.529,1076.188,2161.24,1083.672,2161.24,1083.672z"/>
		<path style="fill:#6DA49A;" d="M2336.754,1064.887c-5.028-0.596-10.172-0.668-15.309-0.32c-3.06,0.209-6.011,0.569-8.857,1.06
			c-0.757,0.13-1.507,0.268-2.248,0.415c-23.319,4.613-43.281,19.589-54.96,40.293l-12.47,22.104l-36.945-39.965
			c0,0-19.445,4.078-25.71,10.785c0,0,17.712,82.564,65.787,81.37c48.075-1.194,51.66-71.065,51.66-71.065l-4.966-2.895
			c22.719,1.018,72.82-3.768,72.82-3.768l28.783-16.752C2394.338,1086.148,2375.14,1069.438,2336.754,1064.887z"/>
		<g>
			<path style="fill:#FFB27D;" d="M2342.869,1064.257c-4.826,5.9-14.072,6.558-21.204,4.549c-3.611-1.017-3.753-4.815-2.627-5.064
				c2.76-0.612,3.14-2.997,3.241-5.473l0.133-3.245l0.016-0.404l0.172-4.231l0.305-7.297l0.79-19.197l6.031,19.298l1.025,3.284
				l3.52,11.279C2335.405,1061.397,2340.968,1063.461,2342.869,1064.257z"/>
		</g>
		<g>
			<path style="fill:#331832;" d="M2331.477,1049.363c0,0-2.901,4.767-9.065,5.66l0.016-0.404l0.172-4.231
				C2325.932,1050.071,2331.477,1049.363,2331.477,1049.363z"/>
		</g>
		<g>
			<path style="fill:#EF8062;" d="M2305.801,1018.01c0,0-1.229,4.672,0,10.531c1.229,5.858,7.232-8.542,7.232-8.542
				L2305.801,1018.01z"/>
		</g>
		<g>
			<path style="fill:#FFB27D;" d="M2305.087,1030.23c1.499-11.327,10.387-19.509,19.852-18.276
				c9.466,1.233,15.924,11.415,14.426,22.742c-1.499,11.327-10.387,19.509-19.852,18.276
				C2310.047,1051.739,2303.589,1041.557,2305.087,1030.23z"/>
		</g>
		<g>
			<path style="fill:#EF8062;" d="M2339.797,1028.775l-8.367-0.862c-1.84-0.189-3.522-1.17-4.518-2.717
				c-1.714-2.663-3.777-4.03-11.583-3.74c-9.883,0.368-16.409-5.479-17.477-10.611c-1.09-5.238,3.968-8.789,8.932-6.291
				s2.833-3.627,7.607-4.277c8.92-1.215,10.591,5.609,17.895,5.387c9.576-0.291,26.73,6.93,18.594,23.659L2339.797,1028.775z"/>
		</g>
		<g>
			<g>
				<path style="fill:#080435;" d="M2323.559,1031.597c-0.09-0.056-0.153-0.152-0.162-0.266c-0.016-0.191,0.127-0.359,0.319-0.375
					c0.114-0.009,2.724-0.473,4.039,2.281c0.083,0.174,0.016,0.381-0.157,0.467c-0.173,0.086-0.348-0.007-0.47-0.156
					c-1.221-1.495-3.259-1.906-3.353-1.898C2323.696,1031.656,2323.621,1031.636,2323.559,1031.597z"/>
			</g>
		</g>
		<g>
			<path style="fill:#080435;" d="M2325.078,1036.058c-0.22,0.801-0.873,1.321-1.458,1.163c-0.585-0.159-0.881-0.936-0.661-1.737
				c0.22-0.801,0.873-1.321,1.458-1.163C2325.002,1034.48,2325.298,1035.257,2325.078,1036.058z"/>
		</g>
		<g>
			<g>
				<path style="fill:#080435;" d="M2310.107,1030.564c-0.081-0.014-0.153-0.075-0.189-0.173c-0.062-0.166-0.001-0.376,0.136-0.47
					c0.081-0.055,1.879-1.546,3.573,0.403c0.107,0.123,0.112,0.338,0.007,0.486c-0.105,0.148-0.258,0.137-0.387,0.052
					c-1.292-0.85-2.9-0.383-2.967-0.338C2310.223,1030.562,2310.163,1030.574,2310.107,1030.564z"/>
			</g>
		</g>
		<g>
			<path style="fill:#080435;" d="M2313.302,1034.128c0.104,0.823-0.3,1.552-0.902,1.626s-1.174-0.532-1.278-1.356
				c-0.104-0.823,0.3-1.551,0.902-1.626S2313.198,1033.305,2313.302,1034.128z"/>
		</g>
		<g>
			<path style="fill:#EF8062;" d="M2350.88,1029.324c0,0-5.778,12.375-13.972,13.282c0,0,6.625-9.431-7.34-15.178
				C2329.569,1027.429,2342.391,1025.427,2350.88,1029.324z"/>
		</g>
		<g>
			<path style="fill:#FFB27D;" d="M2339.328,1036.153c-1.752,1.107-3.981,0.744-4.977-0.81c-0.996-1.554-0.384-3.711,1.369-4.818
				c1.752-1.107,3.981-0.744,4.977,0.81C2341.694,1032.89,2341.081,1035.047,2339.328,1036.153z"/>
		</g>
		<g>
			<path style="fill:#FFFFFF;" d="M2311.22,1042.202c0,0,5.388,1.447,11.276,0.881c0,0-0.864,5.41-6.822,4.333
				C2312.211,1046.789,2311.22,1042.202,2311.22,1042.202z"/>
		</g>
		<g>
			<path style="fill:#331832;" d="M2386.34,1224.222c-0.116,4.751-27.426,6.638-61.204,5.529
				c-33.778-1.108-60.77-6.022-60.654-10.773c0.116-4.751,27.295-7.54,61.073-6.432
				C2359.333,1213.655,2386.456,1219.471,2386.34,1224.222z"/>
		</g>
		<g>
			<path style="fill:#6DA49A;" d="M2378.072,1089.719c0,0-4.569-19.049-35.2-23.995c-4.391-0.709-14.292,1.702-19.817,1.67
				c-3.197-0.018-1.243-2.71-4.098-2.419c-53.916,5.486-48.89,65.347-54.474,154.003c0,0,49.251-17.1,121.814,4.891
				C2386.296,1223.87,2391.872,1127.769,2378.072,1089.719z"/>
		</g>
		<g>
			<g>
				<path style="fill:#6DA49A;" d="M2399.853,1223.053c-2.65-30.685-24.22-111.008-26.734-115.403
					c-2.023-3.537,1.599-11.311,7.315-15.019c5.363-3.479,12.296-7.909,13.904-6.483c22.656,20.091,42.149,93.506,36.002,134.187
					L2399.853,1223.053z"/>
			</g>
		</g>
		<g>
			<path style="fill:#EF8062;" d="M2327.924,1068.701c0,0-7.742-2.519-9.8-0.563c-2.058,1.955-0.544,10.9,3.021,11.695
				C2324.709,1080.628,2331.449,1070.859,2327.924,1068.701z"/>
		</g>
		<g>
			<path style="fill:#E6F1EF;" d="M2323.377,1066.591c0,0,10.105-3.757,12.076-7.515c1.971-3.757,12.435,4.924,12.253,7.515
				c-0.182,2.591-19.027,16.974-20.259,15.16C2326.215,1079.937,2320.908,1069.053,2323.377,1066.591z"/>
		</g>
		<g>
			<path style="fill:#E6F1EF;" d="M2323.377,1066.591c0,0-1.51-3.945-0.783-6.086c0,0,0.48-1.882-1.06-1.753
				c-1.54,0.13-9.915,6.284-10.655,8.163c-0.739,1.879-0.862,10.689,1.848,11.337s9.242-8.817,10.01-9.753
				C2323.505,1067.563,2323.377,1066.591,2323.377,1066.591z"/>
		</g>
		<g>
			<path style="fill:#EF8062;" d="M2318.978,1076.374c0,0-26.636,72.623-24.86,103.06c0,0,1.878,17.763,13.847,27.351
				c0,0,16.156-11.143,18.327-27.351c1.784-13.32-6.112-90.493-1.555-101.15L2318.978,1076.374z"/>
		</g>
		<g>
			<path style="fill:#331832;" d="M2321.204,1080.023c-0.021,0-0.042,0-0.063,0c-2.354-0.041-3.632-4.873-3.686-5.078l0.367-0.095
				c0.012,0.047,1.258,4.759,3.326,4.795c0.019,0,0.037,0,0.056,0c2.101,0,3.991-2.057,4.01-2.078l0.281,0.254
				C2325.413,1077.911,2323.474,1080.023,2321.204,1080.023z"/>
		</g>
		<g>
			<path style="fill:#331832;" d="M2430.34,1220.335c0.18,4.443-6.537,8.425-15.003,8.892c-8.466,0.468-15.475-2.755-15.655-7.199
				c-0.18-4.443,6.537-8.425,15.003-8.892C2423.151,1212.669,2430.16,1215.891,2430.34,1220.335z"/>
		</g>
		<g>
			<path style="fill:#331832;" d="M2318.39,1454.269c0,0-0.229,9.067-6.411,11.624s-24.094,4.866-17.401,10.694
				c3.841,3.345,21.94,1.183,27.049,1.183c5.111,0,9.908,2.21,13.706-1.184c4.177-3.734-0.001-22.318-0.001-22.318
				s-4.409,2.28-8.375,2.178C2321.243,1456.299,2318.39,1454.269,2318.39,1454.269z"/>
		</g>
		<g>
			<path style="fill:#331832;" d="M2405.693,1440.6c0,0,12.147,18.919,10.208,25.281c-1.939,6.362-11.527,21.553-2.738,20.129
				c5.043-0.817,14.864-16.058,18.111-19.974c3.248-3.916,8.016-6.187,7.789-11.254c-0.25-5.574-17.364-14.183-17.364-14.183
				s-1.029,4.827-3.628,7.801C2414.323,1452.687,2405.693,1440.6,2405.693,1440.6z"/>
		</g>
		<g>
			<path style="fill:#EF8062;" d="M2278.724,1219.692c-1.856,0.086-3.348,1.528-3.498,3.366c-0.703,8.604-1.425,35.533,8.281,93.421
				c8.812,52.558,19.214,105.521,24.318,130.911c1.826,9.083,9.523,15.724,18.646,16.087l4.902,0.195
				c9.864,0.392,17.869-8.016,17.148-18.012l-12.383-171.78c0,0,0.42-55.254-14.441-55.542
				C2312.755,1218.164,2287.588,1219.28,2278.724,1219.692z"/>
		</g>
		<g>
			<path style="fill:#EF8062;" d="M2285.891,1219.37c0,0,49.756,109.325,64.433,142.685c10.286,23.379,51.542,88.297,51.542,88.297
				c2.88,9.18,32.769,0.907,30.989-8.841c0,0-25.981-68.082-32.16-91.525c-7.772-29.487-20.811-123.31-20.811-123.31
				C2379.336,1224.225,2326.957,1214.349,2285.891,1219.37z"/>
		</g>
		<g>
			<path style="fill:#020202;" d="M2340.425,1341.228l-15.041-55.035c-3.318-10.006-10.161-18.383-19.259-23.555l0.57-1.003
				c9.347,5.314,16.376,13.917,19.792,24.225l15.05,55.064L2340.425,1341.228z"/>
		</g>
		<g>
			<g>
				<path style="fill:#1F5873;" d="M2406.952,1266.659l-4.496-0.09l0.37-18.378c0.184-4.71,3.68-8.657,8.314-9.427l14.669-2.439
					c4.218-0.702,8.41,1.347,10.428,5.097l0.038,0.075l9.361,19.087l-4.037,1.979l-9.341-19.045
					c-1.113-2.034-3.402-3.142-5.713-2.758l-14.668,2.439c-2.541,0.423-4.457,2.578-4.557,5.124L2406.952,1266.659z"/>
			</g>
			<g>
				<path style="fill:#366F90;" d="M2395.486,1324.36l68.915-4.89c4.857-0.345,8.524-4.512,8.215-9.335l-3.138-48.837
					c-0.329-5.115-4.977-8.869-10.09-8.151l-82.587,11.609c-5.679,0.798-9.111,6.658-6.999,11.95l16.81,42.118
					C2388.036,1322.394,2391.627,1324.634,2395.486,1324.36z"/>
			</g>
			<g>
				<polygon style="fill:#1F5873;" points="2421.846,1292.957 2421.689,1292.928 2372.409,1283.988 2372.595,1282.961 
					2421.717,1291.873 2469.888,1270.504 2470.311,1271.457 				"/>
			</g>
			<g>
				<path style="fill:#1F5873;" d="M2421.702,1296.91L2421.702,1296.91c1.563-0.26,2.627-1.741,2.365-3.292l-0.459-2.723
					c-0.262-1.551-1.755-2.607-3.317-2.347l0,0c-1.563,0.26-2.627,1.741-2.365,3.292l0.46,2.723
					C2418.647,1296.114,2420.139,1297.17,2421.702,1296.91z"/>
			</g>
		</g>
		<g>
			<path style="fill:#FFB27D;" d="M2398.677,1237.773c1.084-2.088,2.284-5.552,3.483-8.862c0.967-2.668,1.934-5.235,2.84-6.901
				c0.468-0.86,3.557-4.891,10.945-4.841c7.456,0.049,8.3,3.014,8.3,3.014s3.001,4.941,5.484,13.263
				c0.212,0.442,0.388,0.943,0.514,1.524c0.879,4.039,2.87,9.607,0.401,11.745c-2.694,2.333-4.368-1.683-5.048-3.889
				c0.463,2.019,1.006,5.904-0.978,8.099c-2.089,2.311-4.48-4.008-5.52-7.22c-0.009,0.002-0.019,0.005-0.028,0.007
				c0.739,2.887,1.764,8.477-0.871,9.997c-3.117,1.798-5.519-6.797-6.159-8.765c-0.076,0.004-0.155,0.011-0.229,0.014
				c-1.819,12.234-6.7,6.054-7.802-3.364c-1.784,1.959-5.834,5.472-7.14,4.563C2395.354,1245.1,2397.829,1239.407,2398.677,1237.773
				z"/>
		</g>
		<g>
			<path style="fill:#EF8062;" d="M2110.911,1017.954c-7.953-42.819,3.096-92.071,66.131-103.779
				c41.05-7.625,82.983,22.38,95.026,64.215c14.639,50.854-9.647,87.87-67.799,105.293
				C2164.255,1095.671,2120.854,1071.486,2110.911,1017.954z"/>
			<g style="opacity:0.5;">
				<path style="fill:#FFB27D;" d="M2185.065,1075.897c-11.004,0-21.774-3-31.44-8.888c-16.955-10.346-28.63-28.631-32.876-51.473
					c-9.015-48.529,12.702-82.538,58.089-90.973c35.205-6.538,72.652,18.695,83.472,56.256
					c12.751,44.312-8.279,77.131-59.221,92.402C2197.109,1075.02,2191.052,1075.897,2185.065,1075.897z M2125.306,1014.688
					c3.998,21.54,14.917,38.707,30.739,48.359c13.778,8.407,30.003,10.416,45.713,5.732c48.812-14.62,68.208-44.595,56.094-86.684
					c-10.169-35.325-45.231-59.087-78.165-52.973C2118.378,940.514,2121.23,992.751,2125.306,1014.688z"/>
			</g>
			<g>
				<path style="fill:#FFB27D;" d="M2201.23,1046.972l-1.772-5.179c-0.645-1.884-2.545-2.948-4.406-2.516
					c-4.384,1.017-8.924,1.219-12.692,0.639c-1.829-0.281-3.192-1.932-3.207-3.851l-0.011-1.326
					c-0.019-2.321,1.915-4.094,4.133-3.807c4.281,0.555,9.173,0.245,13.878-1.431c8.018-2.857,9.744-9.792,7.375-16.716
					c-2.286-6.681-6.112-9.218-15.716-9.884c-13.181-0.755-26.49-2.288-30.105-12.856c-3.152-9.211-0.913-20.447,12.242-25.623
					c1.57-0.618,1.965-2.804,1.397-4.465l-1.94-5.672c-0.692-2.022,0.315-4.219,2.249-4.908l0,0
					c1.934-0.689,4.062,0.391,4.753,2.413l1.618,4.729c0.632,1.846,2.485,2.949,4.312,2.537c3.674-0.828,6.841-0.934,9.549-0.675
					c1.941,0.186,3.423,1.921,3.405,3.945l-0.011,1.279c-0.02,2.229-1.854,3.917-3.993,3.728c-3.004-0.266-6.991-0.112-11.688,1.562
					c-8.695,3.098-10.059,9.853-8.396,14.712c2.161,6.316,8.455,4.753,19.776,5.625c13.377,0.957,23.184,5.527,27.825,15.95
					c4.951,11.119,1.241,21.44-12.123,28.749c-1.485,0.812-1.97,2.806-1.401,4.468l2.066,6.038c0.692,2.022-0.315,4.219-2.249,4.908
					l-0.113,0.04C2204.05,1050.075,2201.922,1048.994,2201.23,1046.972z"/>
			</g>
		</g>
		<g>
			<path style="fill:#4D857C;" d="M2266.713,1177.669c-0.006,0-0.019,0-0.025,0c-0.289-0.025-0.508-0.263-0.496-0.552
				c1.763-34.087,10.417-62.124,10.504-62.4c0.082-0.289,0.358-0.427,0.653-0.351c0.276,0.088,0.427,0.376,0.339,0.653
				c-0.082,0.289-8.698,28.201-10.455,62.149C2267.222,1177.443,2266.99,1177.669,2266.713,1177.669z"/>
		</g>
		<g>
			<path style="fill:#4D857C;" d="M2254.219,1152.958c-0.282,0-0.514-0.226-0.521-0.515c-0.339-15.55-10.988-23.507-11.094-23.582
				c-0.232-0.176-0.282-0.502-0.113-0.74c0.169-0.239,0.49-0.276,0.728-0.113c0.113,0.088,11.176,8.321,11.521,24.41
				c0.006,0.289-0.219,0.527-0.508,0.54C2254.226,1152.958,2254.226,1152.958,2254.219,1152.958z"/>
		</g>
		<g>
			<path style="fill:#4D857C;" d="M2387.41,1159.998c-0.214,0-0.42-0.138-0.496-0.351c-5.597-16.002-20.162-33.497-20.313-33.672
				c-0.182-0.226-0.157-0.552,0.069-0.74c0.219-0.163,0.546-0.151,0.734,0.063c0.144,0.176,14.834,17.821,20.501,33.999
				c0.094,0.276-0.05,0.577-0.326,0.665C2387.523,1159.986,2387.466,1159.998,2387.41,1159.998z"/>
		</g>
	</g>
	<g>
		<g>
			<g>
				<g>
					<path style="fill:#331832;" d="M488.473,1252.684l-3.898-0.13l0.522-16.119c0.03-2.198-1.531-4.176-3.712-4.664l-12.592-2.818
						c-1.98-0.44-4.016,0.422-5.074,2.152l-8.963,16.253l-3.406-1.923l9.02-16.352c1.92-3.192,5.642-4.791,9.265-3.982l12.593,2.818
						c3.978,0.89,6.825,4.51,6.768,8.608L488.473,1252.684z"/>
				</g>
				<path style="fill:#7A4A7F;" d="M491.859,1303.64l-59.461-7.482c-4.191-0.527-7.176-4.349-6.686-8.56l4.958-42.641
					c0.519-4.466,4.717-7.54,9.113-6.672l70.994,14.003c4.882,0.963,7.585,6.256,5.513,10.794l-16.491,36.12
					C498.401,1302.263,495.188,1304.059,491.859,1303.64z"/>
				<g>
					<polygon style="fill:#331832;" points="470.469,1274.903 470.345,1274.84 429.482,1253.818 429.891,1253.002 470.631,1273.96 
						513.582,1268.432 513.697,1269.34 					"/>
				</g>
				<g>
					<path style="fill:#331832;" d="M470.413,1278.374L470.413,1278.374c-1.342-0.3-2.195-1.647-1.898-2.994l0.523-2.365
						c0.298-1.347,1.639-2.203,2.98-1.903l0,0c1.341,0.3,2.195,1.647,1.898,2.994l-0.523,2.365
						C473.095,1277.817,471.754,1278.674,470.413,1278.374z"/>
				</g>
			</g>
			<path style="fill:#FFB27D;" d="M490.397,1227.728c-0.843-1.879-1.723-4.97-2.61-7.926c-0.715-2.382-1.435-4.677-2.143-6.178
				c-0.688-1.459-16.583-2.494-16.583-2.494s-2.826,4.19-5.358,11.365c-0.204,0.377-0.379,0.808-0.516,1.312
				c-0.946,3.498-2.926,8.284-0.886,10.271c2.226,2.169,3.86-1.272,4.55-3.173c-0.494,1.747-1.142,5.126,0.475,7.141
				c1.703,2.122,4.064-3.303,5.112-6.069c0.008,0.003,0.016,0.005,0.024,0.008c-0.772,2.495-1.917,7.344,0.296,8.799
				c2.617,1.72,5.092-5.699,5.736-7.393c0.065,0.007,0.133,0.016,0.198,0.023c1.014,10.803,5.525,5.615,6.911-2.585
				c1.456,1.799,4.802,5.064,5.974,4.329C492.939,1234.302,491.057,1229.2,490.397,1227.728z"/>
		</g>
		<path style="fill:#FFB27D;" d="M722.856,1033.253c2.11-3.435,16.602-13.006,15.848-10.691c13.356-6.276,32.892-9.638,6.746,4.128
			c0.006,0.01,0.013,0.022,0.019,0.033c2.332-1.018,19.207-9.049,19.861-5.056c0.479,2.925-13.596,9.135-17.415,10.848
			c0.011,0.034,0.022,0.068,0.033,0.102c4.025-1.434,15.956-6.388,16.559-3.621c0.793,3.641-14.783,9.558-14.783,9.558
			s12.808-5.214,11.987-0.892c-0.463,2.436-8.134,5.29-12.935,7.001h0c0,0-0.001,0-0.001,0c-1.006,0.359-1.889,0.669-2.55,0.912
			c-0.549,0.203-1.055,0.327-1.529,0.394c-8.187,2.394-13.806,2.669-13.806,2.669s-6.591,1.427-9.407-4.818
			C719.688,1039.841,721.941,1034.742,722.856,1033.253z"/>
		<path style="fill:#331832;" d="M591.659,1453.533c0,0-0.323,9.146,5.836,12.081c6.159,2.935,24.318,6.3,17.122,11.783
			c-4.129,3.146-22.488-0.082-27.709-0.379c-5.221-0.297-10.259,1.651-13.93-1.989c-4.039-4.004,1.371-22.48,1.371-22.48
			s4.365,2.552,8.423,2.68C588.619,1455.412,591.659,1453.533,591.659,1453.533z"/>
		<path style="fill:#331832;" d="M500.875,1420.429c0,0-13.404,36.019-10.686,42.475c2.718,6.457,14.12,21.554,5.237,20.648
			c-5.097-0.52-16.735-15.654-20.443-19.495c-3.708-3.841-8.715-5.884-9.125-11.14c-0.452-5.783,17.327-24.226,17.327-24.226
			s1.723-26.266,4.67-23.357C492.102,1409.525,500.875,1420.429,500.875,1420.429z"/>
		<path style="fill:#EF8062;" d="M587.8,1017.424c0,0-1.043-15.769-15.247-14.459c-14.204,1.31-9.153,11.031-11.198,14.154
			c-2.045,3.123,5.793,9.666,12.693,9.407C580.948,1026.267,587.8,1017.424,587.8,1017.424z"/>
		<path style="fill:#EF8062;" d="M639.799,1227.071c-2.548-28.986-61.414,4.564-61.414,4.564s-20.602,199.774-8.532,227.463
			c2.382,5.465,12.113,5.15,16.658,4.528c32.144-4.403,37.898-104.142,45.323-148.09
			C635.559,1293.486,641.34,1244.603,639.799,1227.071z"/>
		<path style="fill:#331832;" d="M525.013,1229.215c1.855,7.09,29.029,13.946,61.185,5.645
			c32.156-8.301,57.199-16.915,55.344-24.005c-1.854-7.09-29.904-9.972-62.06-1.671
			C547.326,1217.485,523.159,1222.124,525.013,1229.215z"/>
		<path style="fill:#6DA49A;" d="M626.528,1116.619c7.873-3.752,15.013-9.108,15.013-9.108s-17.73-29.384-53.48-26.587
			c-4.951,0.387-27.257,4.892-32.041,5.863c-61.394,12.463-31.291,139.67-31.008,142.428c61.689-28.928,116.529-18.36,116.529-18.36
			C640.902,1162.118,627.573,1119.032,626.528,1116.619z"/>
		<path style="fill:#EF8062;" d="M536.149,1230.445c0,0,53.934-18.399,98.93-16.656c2.066,0.08,3.749,1.649,3.917,3.664
			c0,0,1.255,16.305,0.979,21.737c-0.611,12.024-107.298,10.076-107.298,10.076L536.149,1230.445z"/>
		<path style="fill:#FFB27D;" d="M562.105,1085.51c5.601,6.083,11.776,7.937,19.769,7.753c12.104-0.279,6.188-12.339,6.188-12.339
			c-2.975,0-4.632-1.436-4.945-4.328l-0.376-3.555l-0.185-1.762l-0.606-5.631l-0.54-5.057l-2.214-20.74l-5.105,21.287l-0.868,3.616
			l-2.992,12.478c-0.957,3.978-4.05,7.115-8.066,8.261C562.147,1085.496,562.124,1085.507,562.105,1085.51z"/>
		<path style="fill:#331832;" d="M573.224,1064.755c0,0,3.709,6.056,9.332,6.524l-0.606-5.631
			C578.435,1065.049,573.224,1064.755,573.224,1064.755z"/>
		<path style="fill:#EF8062;" d="M551.633,1047.193c0,0,2.169,2.76,3.248,9.949c1.579,10.519,14.252,9.434,15.826,5.51
			c0.195-0.485-7.498-16.094-7.498-16.094l-4.407-0.431L551.633,1047.193z"/>
		<path style="fill:#FFB27D;" d="M595.422,1034.65c-5.534-12.097-18.17-18.19-28.224-13.609c-10.054,4.581-13.719,18.102-8.185,30.2
			c5.534,12.097,18.17,18.19,28.224,13.609S600.956,1046.747,595.422,1034.65z"/>
		<path style="fill:#EF8062;" d="M576.737,1022.846c-0.198,0.903,7.822,10.866-12.352,23.311
			c-20.174,12.445-18.901-18.743-3.369-26.512c22.427-11.218,32.587,2.223,32.858,8.604
			C594.143,1034.629,576.737,1022.846,576.737,1022.846z"/>
		<path style="fill:#EF8062;" d="M565.103,1041.494c0,0-4.633,12.98,2.607,20.792c0,0-7.547-3.094-8.582-5.061
			c-1.036-1.967-3.021-9.869-3.021-9.869L565.103,1041.494z"/>
		<path style="fill:#FFB27D;" d="M562.958,1053.435c2.94,0.981,5.914-0.136,6.641-2.495c0.727-2.359-1.067-5.066-4.007-6.046
			c-2.94-0.981-5.914,0.136-6.641,2.495C558.224,1049.747,560.018,1052.454,562.958,1053.435z"/>
		<g>
			<path style="fill:#080435;" d="M579.075,1042.354c0.106-0.088,0.172-0.22,0.167-0.366c-0.01-0.245-0.22-0.433-0.47-0.42
				c-0.147,0.008-3.574-0.12-4.828,3.608c-0.079,0.235,0.04,0.486,0.276,0.565c0.236,0.078,0.446-0.07,0.579-0.281
				c1.332-2.113,3.885-2.994,4.007-3.001C578.908,1042.453,579.001,1042.415,579.075,1042.354z"/>
		</g>
		<path style="fill:#080435;" d="M577.828,1048.285c0.409,0.978,1.33,1.523,2.057,1.219c0.727-0.304,0.984-1.344,0.575-2.321
			c-0.409-0.978-1.33-1.523-2.057-1.219C577.677,1046.269,577.419,1047.308,577.828,1048.285z"/>
		<g>
			<path style="fill:#080435;" d="M594.818,1037.724c0.132-0.042,0.244-0.141,0.295-0.278c0.086-0.232-0.034-0.486-0.268-0.567
				c-0.138-0.048-3.234-1.45-5.83,1.552c-0.164,0.189-0.152,0.468,0.035,0.629c0.186,0.161,0.437,0.102,0.641-0.045
				c2.041-1.469,4.726-1.333,4.841-1.294C594.627,1037.754,594.727,1037.753,594.818,1037.724z"/>
		</g>
		<path style="fill:#080435;" d="M591.376,1042.781c-0.003,1.064,0.631,1.917,1.416,1.906c0.785-0.011,1.424-0.883,1.427-1.946
			c0.003-1.064-0.631-1.917-1.416-1.906C592.018,1040.846,591.379,1041.717,591.376,1042.781z"/>
		<path style="opacity:0.3;fill:#FFFFFF;" d="M568.415,1046.083c0.714,5.955,4.899,11.097,9.348,11.486
			c4.448,0.389,7.475-4.124,6.761-10.078s-4.899-11.097-9.348-11.486C570.727,1035.616,567.7,1040.128,568.415,1046.083z"/>
		<path style="opacity:0.3;fill:#FFFFFF;" d="M588.057,1041.037c1.364,5.72,5.686,10.523,9.654,10.729
			c3.968,0.205,6.079-4.266,4.716-9.986c-1.364-5.72-5.686-10.523-9.654-10.728C588.804,1030.846,586.693,1035.317,588.057,1041.037
			z"/>
		<g>
			<path style="fill:#331832;" d="M569.124,1050.277c0.128,0.281,0.265,0.558,0.413,0.821c1.374,2.613,3.39,4.695,5.638,5.763
				c0.892,0.428,1.822,0.693,2.769,0.766c0.908,0.073,1.774-0.028,2.58-0.304c0.221-0.073,0.434-0.161,0.645-0.257
				c0.697-0.327,1.351-0.79,1.93-1.375c1.434-1.452,2.309-3.53,2.543-5.939c0.102-0.991,0.091-2.042-0.028-3.125
				c-0.129-1.125-0.374-2.216-0.731-3.264c-0.14-0.45-0.308-0.878-0.494-1.307c-1.623-3.775-4.566-6.692-7.764-7.492
				c-0.396-0.104-0.801-0.167-1.204-0.204c-1.972-0.157-3.756,0.51-5.155,1.936c-1.774,1.799-2.698,4.551-2.614,7.697
				c0.01,0.454,0.047,0.905,0.099,1.368c0.03,0.271,0.071,0.546,0.12,0.817c0.125,0.787,0.319,1.561,0.557,2.307
				C568.624,1049.101,568.86,1049.7,569.124,1050.277z M583.972,1053.118c-0.371,0.793-0.841,1.494-1.408,2.064
				c-0.5,0.512-1.051,0.911-1.655,1.195c-0.884,0.412-1.857,0.589-2.891,0.51c-0.977-0.078-1.94-0.373-2.852-0.866
				c-2.236-1.165-4.183-3.407-5.41-6.17l-0.004-0.008c-0.183-0.421-0.354-0.857-0.51-1.3c-0.145-0.42-0.275-0.848-0.381-1.286
				c-0.165-0.649-0.288-1.309-0.365-1.99c-0.068-0.621-0.105-1.237-0.086-1.833c-0.004-0.338,0.015-0.667,0.052-0.996
				c0.001-0.019,0.002-0.037,0.01-0.06c0.002-0.037,0.007-0.067,0.009-0.105c0.063-0.644,0.17-1.252,0.33-1.83
				c0.389-1.453,1.067-2.707,1.986-3.639c0.667-0.68,1.433-1.167,2.276-1.441c0.709-0.24,1.468-0.329,2.269-0.263
				c0.304,0.027,0.604,0.065,0.901,0.14c3.082,0.67,5.929,3.501,7.484,7.188c0.187,0.429,0.35,0.868,0.494,1.326
				c0.304,0.953,0.523,1.946,0.641,2.965c0.118,1.02,0.127,2.025,0.023,2.972c-0.12,1.239-0.431,2.39-0.896,3.39
				C583.981,1053.096,583.976,1053.107,583.972,1053.118z"/>
		</g>
		<g>
			<path style="fill:#331832;" d="M589.16,1044.239c0.135,0.296,0.275,0.581,0.423,0.863c0.148,0.281,0.311,0.556,0.47,0.823
				c0.102,0.183,0.216,0.37,0.331,0.538c0.01,0.023,0.032,0.05,0.043,0.073c0.096,0.149,0.189,0.29,0.293,0.435
				c0.011,0.004,0.015,0.012,0.018,0.019c-0.826-1.312-1.509-2.827-1.971-4.452c-0.053-0.013-0.151-0.023-0.288-0.034
				c0.101,0.303,0.206,0.594,0.322,0.89C588.914,1043.681,589.035,1043.966,589.16,1044.239z M589.16,1044.239
				c0.135,0.296,0.275,0.581,0.423,0.863c0.148,0.281,0.311,0.556,0.47,0.823c0.102,0.183,0.216,0.37,0.331,0.538
				c0.01,0.023,0.032,0.05,0.043,0.073c0.096,0.149,0.189,0.29,0.293,0.435c0.011,0.004,0.015,0.012,0.018,0.019
				c-0.826-1.312-1.509-2.827-1.971-4.452c-0.053-0.013-0.151-0.023-0.288-0.034c0.101,0.303,0.206,0.594,0.322,0.89
				C588.914,1043.681,589.035,1043.966,589.16,1044.239z M589.16,1044.239c0.135,0.296,0.275,0.581,0.423,0.863
				c0.148,0.281,0.311,0.556,0.47,0.823c0.102,0.183,0.216,0.37,0.331,0.538c0.01,0.023,0.032,0.05,0.043,0.073
				c0.096,0.149,0.189,0.29,0.293,0.435c0.011,0.004,0.015,0.012,0.018,0.019c-0.826-1.312-1.509-2.827-1.971-4.452
				c-0.053-0.013-0.151-0.023-0.288-0.034c0.101,0.303,0.206,0.594,0.322,0.89C588.914,1043.681,589.035,1043.966,589.16,1044.239z
				 M589.16,1044.239c0.135,0.296,0.275,0.581,0.423,0.863c0.148,0.281,0.311,0.556,0.47,0.823c0.102,0.183,0.216,0.37,0.331,0.538
				c0.01,0.023,0.032,0.05,0.043,0.073c0.096,0.149,0.189,0.29,0.293,0.435c0.011,0.004,0.015,0.012,0.018,0.019
				c-0.826-1.312-1.509-2.827-1.971-4.452c-0.053-0.013-0.151-0.023-0.288-0.034c0.101,0.303,0.206,0.594,0.322,0.89
				C588.914,1043.681,589.035,1043.966,589.16,1044.239z M589.16,1044.239c0.135,0.296,0.275,0.581,0.423,0.863
				c0.148,0.281,0.311,0.556,0.47,0.823c0.102,0.183,0.216,0.37,0.331,0.538c0.01,0.023,0.032,0.05,0.043,0.073
				c0.096,0.149,0.189,0.29,0.293,0.435c0.011,0.004,0.015,0.012,0.018,0.019c-0.826-1.312-1.509-2.827-1.971-4.452
				c-0.053-0.013-0.151-0.023-0.288-0.034c0.101,0.303,0.206,0.594,0.322,0.89C588.914,1043.681,589.035,1043.966,589.16,1044.239z
				 M589.16,1044.239c0.135,0.296,0.275,0.581,0.423,0.863c0.148,0.281,0.311,0.556,0.47,0.823c0.102,0.183,0.216,0.37,0.331,0.538
				c0.01,0.023,0.032,0.05,0.043,0.073c0.096,0.149,0.189,0.29,0.293,0.435c0.011,0.004,0.015,0.012,0.018,0.019
				c-0.826-1.312-1.509-2.827-1.971-4.452c-0.053-0.013-0.151-0.023-0.288-0.034c0.101,0.303,0.206,0.594,0.322,0.89
				C588.914,1043.681,589.035,1043.966,589.16,1044.239z M589.16,1044.239c0.135,0.296,0.275,0.581,0.423,0.863
				c0.148,0.281,0.311,0.556,0.47,0.823c0.102,0.183,0.216,0.37,0.331,0.538c0.01,0.023,0.032,0.05,0.043,0.073
				c0.096,0.149,0.189,0.29,0.293,0.435c0.011,0.004,0.015,0.012,0.018,0.019c-0.826-1.312-1.509-2.827-1.971-4.452
				c-0.053-0.013-0.151-0.023-0.288-0.034c0.101,0.303,0.206,0.594,0.322,0.89C588.914,1043.681,589.035,1043.966,589.16,1044.239z
				 M589.16,1044.239c0.135,0.296,0.275,0.581,0.423,0.863c0.148,0.281,0.311,0.556,0.47,0.823c0.102,0.183,0.216,0.37,0.331,0.538
				c0.01,0.023,0.032,0.05,0.043,0.073c0.096,0.149,0.189,0.29,0.293,0.435c0.011,0.004,0.015,0.012,0.018,0.019
				c-0.826-1.312-1.509-2.827-1.971-4.452c-0.053-0.013-0.151-0.023-0.288-0.034c0.101,0.303,0.206,0.594,0.322,0.89
				C588.914,1043.681,589.035,1043.966,589.16,1044.239z M588.99,1045.308c0.893,1.951,2.09,3.645,3.45,4.888l0.008-0.004
				l0.003,0.008c1.366,1.258,2.902,2.045,4.452,2.183c0.099,0.01,0.194,0.013,0.289,0.015c0.011,0.004,0.019,0,0.03,0.005
				c0.784,0.028,1.535-0.121,2.22-0.433c0.584-0.266,1.124-0.65,1.6-1.151c1.884-1.95,2.675-5.403,2.126-9.236
				c-0.899-6.243-5.108-11.62-9.366-12.001c-0.087-0.006-0.186-0.016-0.27-0.015l-0.008,0.004c-0.365-0.017-0.706,0-1.047,0.055
				c-0.48,0.081-0.929,0.231-1.358,0.445c-0.53,0.26-1.012,0.626-1.463,1.08c-1.876,1.947-2.675,5.403-2.118,9.233
				c0.039,0.249,0.077,0.497,0.123,0.742c0.086,0.456,0.192,0.913,0.32,1.359C588.233,1043.469,588.583,1044.419,588.99,1045.308z
				 M590.737,1046.989c-0.826-1.312-1.509-2.827-1.971-4.452c-0.131-0.472-0.247-0.952-0.344-1.431
				c-0.052-0.279-0.097-0.561-0.141-0.844c-0.262-1.807-0.213-3.509,0.117-4.99c0.319-1.421,0.904-2.632,1.713-3.515
				c0.029-0.041,0.06-0.073,0.092-0.107c0.408-0.424,0.869-0.754,1.367-0.981c0.436-0.199,0.907-0.321,1.4-0.354
				c0.245-0.02,0.489-0.021,0.744,0.001c3.943,0.351,7.848,5.453,8.707,11.384c0.003,0.026,0.005,0.053,0.008,0.079
				c0.003,0.008,0.003,0.008,0.007,0.015c0.003,0.008,0.003,0.026,0.006,0.034c0.003,0.007-0.001,0.019,0.003,0.026
				c0.478,3.554-0.25,6.693-1.946,8.457c-0.852,0.893-1.922,1.353-3.1,1.348c-0.138,0.008-0.275-0.003-0.411-0.015
				c-0.118-0.01-0.235-0.021-0.352-0.05c-0.027,0.003-0.068-0.005-0.102-0.018c0,0-0.008,0.003-0.011-0.004
				c-0.008,0.004-0.011-0.004-0.022-0.008c-0.939-0.16-1.872-0.597-2.758-1.258c-1.06-0.774-2.045-1.858-2.887-3.144
				C590.82,1047.107,590.781,1047.043,590.737,1046.989z M589.16,1044.239c0.135,0.296,0.275,0.581,0.423,0.863
				c0.148,0.281,0.311,0.556,0.47,0.823c0.102,0.183,0.216,0.37,0.331,0.538c0.01,0.023,0.032,0.05,0.043,0.073
				c0.096,0.149,0.189,0.29,0.293,0.435c0.011,0.004,0.015,0.012,0.018,0.019c-0.826-1.312-1.509-2.827-1.971-4.452
				c-0.053-0.013-0.151-0.023-0.288-0.034c0.101,0.303,0.206,0.594,0.322,0.89C588.914,1043.681,589.035,1043.966,589.16,1044.239z
				 M589.16,1044.239c0.135,0.296,0.275,0.581,0.423,0.863c0.148,0.281,0.311,0.556,0.47,0.823c0.102,0.183,0.216,0.37,0.331,0.538
				c0.01,0.023,0.032,0.05,0.043,0.073c0.096,0.149,0.189,0.29,0.293,0.435c0.011,0.004,0.015,0.012,0.018,0.019
				c-0.826-1.312-1.509-2.827-1.971-4.452c-0.053-0.013-0.151-0.023-0.288-0.034c0.101,0.303,0.206,0.594,0.322,0.89
				C588.914,1043.681,589.035,1043.966,589.16,1044.239z M589.16,1044.239c0.135,0.296,0.275,0.581,0.423,0.863
				c0.148,0.281,0.311,0.556,0.47,0.823c0.102,0.183,0.216,0.37,0.331,0.538c0.01,0.023,0.032,0.05,0.043,0.073
				c0.096,0.149,0.189,0.29,0.293,0.435c0.011,0.004,0.015,0.012,0.018,0.019c-0.826-1.312-1.509-2.827-1.971-4.452
				c-0.053-0.013-0.151-0.023-0.288-0.034c0.101,0.303,0.206,0.594,0.322,0.89C588.914,1043.681,589.035,1043.966,589.16,1044.239z
				 M589.16,1044.239c0.135,0.296,0.275,0.581,0.423,0.863c0.148,0.281,0.311,0.556,0.47,0.823c0.102,0.183,0.216,0.37,0.331,0.538
				c0.01,0.023,0.032,0.05,0.043,0.073c0.096,0.149,0.189,0.29,0.293,0.435c0.011,0.004,0.015,0.012,0.018,0.019
				c-0.826-1.312-1.509-2.827-1.971-4.452c-0.053-0.013-0.151-0.023-0.288-0.034c0.101,0.303,0.206,0.594,0.322,0.89
				C588.914,1043.681,589.035,1043.966,589.16,1044.239z M589.16,1044.239c0.135,0.296,0.275,0.581,0.423,0.863
				c0.148,0.281,0.311,0.556,0.47,0.823c0.102,0.183,0.216,0.37,0.331,0.538c0.01,0.023,0.032,0.05,0.043,0.073
				c0.096,0.149,0.189,0.29,0.293,0.435c0.011,0.004,0.015,0.012,0.018,0.019c-0.826-1.312-1.509-2.827-1.971-4.452
				c-0.053-0.013-0.151-0.023-0.288-0.034c0.101,0.303,0.206,0.594,0.322,0.89C588.914,1043.681,589.035,1043.966,589.16,1044.239z
				 M589.16,1044.239c0.135,0.296,0.275,0.581,0.423,0.863c0.148,0.281,0.311,0.556,0.47,0.823c0.102,0.183,0.216,0.37,0.331,0.538
				c0.01,0.023,0.032,0.05,0.043,0.073c0.096,0.149,0.189,0.29,0.293,0.435c0.011,0.004,0.015,0.012,0.018,0.019
				c-0.826-1.312-1.509-2.827-1.971-4.452c-0.053-0.013-0.151-0.023-0.288-0.034c0.101,0.303,0.206,0.594,0.322,0.89
				C588.914,1043.681,589.035,1043.966,589.16,1044.239z M589.16,1044.239c0.135,0.296,0.275,0.581,0.423,0.863
				c0.148,0.281,0.311,0.556,0.47,0.823c0.102,0.183,0.216,0.37,0.331,0.538c0.01,0.023,0.032,0.05,0.043,0.073
				c0.096,0.149,0.189,0.29,0.293,0.435c0.011,0.004,0.015,0.012,0.018,0.019c-0.826-1.312-1.509-2.827-1.971-4.452
				c-0.053-0.013-0.151-0.023-0.288-0.034c0.101,0.303,0.206,0.594,0.322,0.89C588.914,1043.681,589.035,1043.966,589.16,1044.239z"
				/>
		</g>
		<g>
			<path style="fill:#331832;" d="M589.275,1042.497c0.191-0.087,0.342-0.255,0.396-0.471c0.094-0.372-0.136-0.743-0.512-0.829
				c-0.121-0.027-2.991-0.645-6.109,1.709c-0.311,0.235-0.373,0.669-0.14,0.97c0.233,0.302,0.675,0.355,0.984,0.121
				c2.588-1.956,4.901-1.459,4.924-1.453C588.978,1042.58,589.137,1042.56,589.275,1042.497z"/>
		</g>
		<path style="fill:#EF8062;" d="M557.811,1025.92c0,0-8.228-13.455-20.387-5.952c-12.16,7.504-6.274,13.408-3.52,17.499
			c2.052,3.048,9.675,5.945,15.756,2.633C555.741,1036.789,557.811,1025.92,557.811,1025.92z"/>
		<g>
			<path style="fill:#EF8062;" d="M562.769,1073.389c-0.082,0-0.163-0.013-0.232-0.063c-0.201-0.125-0.264-0.402-0.132-0.602
				c0.113-0.176,2.855-4.342,8.22-6.627c0.213-0.1,0.471,0.013,0.565,0.226c0.094,0.226-0.006,0.477-0.226,0.577
				c-5.12,2.184-7.806,6.25-7.831,6.3C563.051,1073.326,562.913,1073.389,562.769,1073.389z"/>
		</g>
		<g>
			<path style="fill:#020202;" d="M585.987,1057.952c-1.023,0-1.77-0.113-1.857-0.126c-0.132-0.012-0.213-0.138-0.195-0.264
				c0.013-0.113,0.113-0.188,0.226-0.188c0.013,0,0.025,0,0.031,0c0.069,0,6.206,0.866,7.813-2.548
				c0.056-0.126,0.182-0.163,0.307-0.113c0.113,0.063,0.163,0.201,0.107,0.314C591.246,1057.512,588.052,1057.952,585.987,1057.952z
				"/>
		</g>
		<path style="fill:#DAEBE8;" d="M588.062,1080.924c0,0,5.299,11.785-6.188,12.339c0,0,6.171,5.779,10.343,3.307
			c4.172-2.472,0.079-4.49,1.841-6.114c1.762-1.625,3.714-2.813,1.875-4.619s-0.115-5.092-0.115-5.092
			S590.798,1079.726,588.062,1080.924z"/>
		<path style="fill:#DAEBE8;" d="M592.744,1110.396c-0.022-0.976,0.769-1.786,1.767-1.809c0.998-0.023,1.825,0.75,1.846,1.726
			c0.022,0.976-0.769,1.786-1.767,1.809C593.592,1112.145,592.766,1111.373,592.744,1110.396z"/>
		<path style="fill:#DAEBE8;" d="M601.605,1166.98c-0.022-0.976,0.769-1.786,1.767-1.809c0.998-0.023,1.824,0.75,1.846,1.726
			c0.022,0.976-0.769,1.786-1.767,1.809C602.454,1168.729,601.627,1167.956,601.605,1166.98z"/>
		<path style="fill:#DAEBE8;" d="M601.026,1141.263c-0.022-0.976,0.769-1.786,1.767-1.809c0.998-0.023,1.824,0.75,1.846,1.726
			s-0.769,1.786-1.767,1.809C601.875,1143.011,601.048,1142.239,601.026,1141.263z"/>
		<path style="fill:#6DA49A;" d="M633.061,1128.293c0,0,7.315,27.205,8.151,72.104l-45.394-119.652c0,0,27.297,1.056,60.939-7.42
			c20.724-5.218,57.69-36.901,61.559-39.17c4.18-2.451,19.072,15.676,19.072,15.676
			C740.716,1055.732,688.506,1114.881,633.061,1128.293z"/>
		<path style="fill:#6DA49A;" d="M553.961,1087.26c0,0-59.583,22.077-90.083,120.569c-1.105,3.569,4.719,9.296,10.536,11.107
			c5.959,1.856,14.157,1.362,17.158-4.257c11.725-21.955,37.326-55.403,59.021-66.85
			C579.237,1132.714,553.961,1087.26,553.961,1087.26z"/>
		<path style="fill:#DAEBE8;" d="M562.105,1085.51l-8.144,1.75c0,0-1.357,4.195,2.679,5.422c4.036,1.227,4.838,1.208,6.191,4.213
			s6.345,3.022,8.075,1.926c1.729-1.096,4.895,2.791,7.739,2.725c2.845-0.066,4.413-5.036,3.23-8.283
			C581.874,1093.263,571.149,1091.719,562.105,1085.51z"/>
		<g>
			<path style="fill:#331832;" d="M517.688,1178.774c-0.038,0-0.082,0-0.119-0.025c-0.138-0.063-0.201-0.226-0.138-0.364
				c6.124-13.492,21.505-24.523,21.662-24.624c0.119-0.113,0.301-0.075,0.395,0.063c0.088,0.125,0.057,0.301-0.069,0.389
				c-0.157,0.113-15.418,11.044-21.474,24.398C517.895,1178.723,517.795,1178.774,517.688,1178.774z"/>
		</g>
		<g>
			<path style="fill:#331832;" d="M633.063,1128.572c-0.119,0-0.232-0.075-0.27-0.188l-2.805-9.112
				c-0.044-0.151,0.038-0.314,0.188-0.351c0.163-0.075,0.308,0.038,0.352,0.176l2.805,9.112c0.044,0.151-0.038,0.314-0.188,0.351
				C633.12,1128.572,633.088,1128.572,633.063,1128.572z"/>
		</g>
		<path style="fill:#EF8062;" d="M606.621,1229.222c0,0-34.83,156.363-96.043,212.286c-5.93,5.418-14.451,6.5-21.53,2.849
			l-11.206-5.779c-7.646-3.943-10.743-13.611-6.888-21.523c15.855-32.544,53.468-114.942,65.195-186.611L606.621,1229.222z"/>
		<g>
			<path style="fill:#331832;" d="M569.107,1348.103l-0.728-0.276c0.151-0.414,15.663-41.855,20.852-65.262
				c5.233-23.62,23.708-32.292,23.896-32.367l0.326,0.703c-0.182,0.088-18.311,8.609-23.456,31.84
				C584.795,1306.197,569.264,1347.688,569.107,1348.103z"/>
		</g>
		<path style="fill:#FFB27D;" d="M730.326,1026.797c0,0,13.596-11.385,14.988-6.512c1.392,4.873-11.139,11.487-11.139,11.487
			L730.326,1026.797z"/>
		<g>
			<path style="fill:#EF8062;" d="M763.444,905.748c-25.194,11.364-76.247,50.531-72.701,83.289
				c6.798,62.796,94.025,51.336,115.119,41.504c41.239-19.221-5.686-83.925,5.374-109.397
				C822.295,895.672,809.307,885.061,763.444,905.748z"/>
			<path style="fill:#EF8062;" d="M827.643,869.84c0,0-21.459,11.559-16.98,22.08c4.479,10.52,26.643,2.085,28.175-4.026
				c1.531-6.112-7.09-1.415-6.635-6.211C832.657,876.885,831.9,867.23,827.643,869.84z"/>
			<g>
				<path style="fill:#FFB27D;" d="M749.9,1015.477l0.573-4.009c0.208-1.458-0.687-2.798-2.058-3.139
					c-3.232-0.803-6.292-2.196-8.581-3.845c-1.111-0.8-1.454-2.346-0.819-3.616l0.439-0.878c0.768-1.536,2.638-2.055,4.004-1.12
					c2.635,1.805,5.964,3.245,9.628,3.721c6.245,0.812,9.714-3.179,10.48-8.539c0.739-5.172-0.93-8.131-7.037-11.798
					c-8.435-4.928-16.691-10.412-15.522-18.593c1.019-7.131,6.271-13.784,16.682-12.774c1.242,0.12,2.238-1.188,2.421-2.473
					l0.627-4.391c0.224-1.565,1.626-2.675,3.132-2.48l0,0c1.506,0.196,2.546,1.623,2.322,3.189l-0.523,3.661
					c-0.204,1.43,0.647,2.779,1.989,3.122c2.7,0.689,4.823,1.684,6.521,2.765c1.217,0.775,1.611,2.417,0.919,3.745l-0.437,0.839
					c-0.762,1.463-2.538,1.959-3.885,1.115c-1.891-1.185-4.57-2.423-8.229-2.899c-6.773-0.88-9.942,3.114-10.479,6.875
					c-0.699,4.89,3.976,5.975,11.144,10.355c8.495,5.127,13.424,11.436,12.979,19.866c-0.474,8.993-6.388,14.549-17.654,14.875
					c-1.252,0.036-2.241,1.187-2.425,2.474l-0.668,4.674c-0.224,1.565-1.626,2.675-3.132,2.48l-0.088-0.011
					C750.716,1018.47,749.676,1017.043,749.9,1015.477z"/>
			</g>
		</g>
	</g>
</g>
</svg>
